<svg width="600" height="1080" id="v1" xmlns="http://www.w3.org/2000/svg" xmlns:xlink="http://www.w3.org/1999/xlink">

        <style>
            .sans { font: 12px sans-serif; }
            .grey { stroke: rgb(150,150,150); stroke-width:0.5;}
        </style>
        <line x1="300.0" y1="172.5" x2="300.0" y2="907.5" stroke-width="0.5" stroke="rgb(150,150,150)" stroke-opacity="1"/>
<path d="M300.0 695.8183957375027 Q 274.41956134518085 730.3519879215086 300.0 741.8631853161771" stroke-width="2.0" stroke="rgb(0,0,255)" stroke-opacity="0.3" fill="none"/>
<path d="M300.0 552.5356077761692 Q 220.3984511325925 659.9976987471694 300.0 695.8183957375027" stroke-width="1.0" stroke="rgb(0,0,255)" stroke-opacity="0.3" fill="none"/>
<path d="M300.0 422.9815652004819 Q 148.42398303498845 627.6091881032474 300.0 695.8183957375027" stroke-width="2.0" stroke="rgb(0,0,255)" stroke-opacity="0.3" fill="none"/>
<path d="M300.0 695.8183957375027 Q 289.2733555534466 710.2993657403498 300.0 715.1263557412988" stroke-width="2.0" stroke="rgb(0,0,255)" stroke-opacity="0.3" fill="none"/>
<path d="M300.0 850.0 Q 374.92980236594514 748.8447668059741 300.0 715.1263557412988" stroke-width="2.0" stroke="rgb(255,0,0)" stroke-opacity="0.3" fill="none"/>
<path d="M300.0 443.0225093865819 Q 148.83119646960174 647.1003941526196 300.0 715.1263557412988" stroke-width="1.0" stroke="rgb(0,0,255)" stroke-opacity="0.3" fill="none"/>
<path d="M300.0 552.5356077761692 Q 209.67180668603913 674.4786687500164 300.0 715.1263557412988" stroke-width="1.0" stroke="rgb(0,0,255)" stroke-opacity="0.3" fill="none"/>
<path d="M300.0 741.8631853161771 Q 466.022597738664 517.7326783689807 300.0 443.0225093865819" stroke-width="2.0" stroke="rgb(255,0,0)" stroke-opacity="0.3" fill="none"/>
<path d="M300.0 715.1263557412988 Q 451.16880353039824 511.04847097526107 300.0 443.0225093865819" stroke-width="3.0" stroke="rgb(255,0,0)" stroke-opacity="0.3" fill="none"/>
<path d="M300.0 622.9710921256391 Q 399.97143485503176 488.0096550713462 300.0 443.0225093865819" stroke-width="10.0" stroke="rgb(255,0,0)" stroke-opacity="0.3" fill="none"/>
<path d="M300.0 493.18279163333347 Q 327.86682347041756 455.56257994826973 300.0 443.0225093865819" stroke-width="7.0" stroke="rgb(255,0,0)" stroke-opacity="0.3" fill="none"/>
<path d="M300.0 537.4325658772286 Q 352.45003138369265 466.62502350924353 300.0 443.0225093865819" stroke-width="1.0" stroke="rgb(255,0,0)" stroke-opacity="0.3" fill="none"/>
<path d="M300.0 624.9521918765049 Q 401.072045827735 488.5049300090626 300.0 443.0225093865819" stroke-width="2.0" stroke="rgb(255,0,0)" stroke-opacity="0.3" fill="none"/>
<path d="M300.0 661.3947414885573 Q 421.31790672331965 497.61556741207573 300.0 443.0225093865819" stroke-width="1.0" stroke="rgb(255,0,0)" stroke-opacity="0.3" fill="none"/>
<path d="M300.0 392.70741424259916 Q 272.047169364454 430.44373560058614 300.0 443.0225093865819" stroke-width="2.0" stroke="rgb(0,0,255)" stroke-opacity="0.3" fill="none"/>
<path d="M300.0 850.0 Q 465.257995679906 626.9017058321269 300.0 552.5356077761692" stroke-width="1.0" stroke="rgb(255,0,0)" stroke-opacity="0.3" fill="none"/>
<path d="M300.0 443.0225093865819 Q 239.15938978356263 525.1573331787723 300.0 552.5356077761692" stroke-width="1.0" stroke="rgb(0,0,255)" stroke-opacity="0.3" fill="none"/>
<path d="M300.0 425.5959205851765 Q 229.47795156055963 520.800685978421 300.0 552.5356077761692" stroke-width="1.0" stroke="rgb(0,0,255)" stroke-opacity="0.3" fill="none"/>
<path d="M300.0 493.18279163333347 Q 267.0262132539802 537.6974037404602 300.0 552.5356077761692" stroke-width="2.0" stroke="rgb(0,0,255)" stroke-opacity="0.3" fill="none"/>
<path d="M300.0 575.9726128241815 Q 313.0205583600069 558.3948590381723 300.0 552.5356077761692" stroke-width="2.0" stroke="rgb(255,0,0)" stroke-opacity="0.3" fill="none"/>
<path d="M300.0 422.9815652004819 Q 228.02553190239595 520.1470971322474 300.0 552.5356077761692" stroke-width="1.0" stroke="rgb(0,0,255)" stroke-opacity="0.3" fill="none"/>
<path d="M300.0 695.8183957375027 Q 450.12359730684784 493.15153937325806 300.0 425.5959205851765" stroke-width="1.0" stroke="rgb(255,0,0)" stroke-opacity="0.3" fill="none"/>
<path d="M300.0 552.5356077761692 Q 370.52204843944037 457.3308423829247 300.0 425.5959205851765" stroke-width="1.0" stroke="rgb(255,0,0)" stroke-opacity="0.3" fill="none"/>
<path d="M300.0 622.9710921256391 Q 409.65287307803476 474.9397134702922 300.0 425.5959205851765" stroke-width="1.0" stroke="rgb(255,0,0)" stroke-opacity="0.3" fill="none"/>
<path d="M300.0 493.18279163333347 Q 337.54826169342056 442.49263834721575 300.0 425.5959205851765" stroke-width="3.0" stroke="rgb(255,0,0)" stroke-opacity="0.3" fill="none"/>
<path d="M300.0 537.4325658772286 Q 362.13146960669565 453.55508190818955 300.0 425.5959205851765" stroke-width="3.0" stroke="rgb(255,0,0)" stroke-opacity="0.3" fill="none"/>
<path d="M300.0 501.0313099935996 Q 341.9085496713462 444.4547679372823 300.0 425.5959205851765" stroke-width="1.0" stroke="rgb(255,0,0)" stroke-opacity="0.3" fill="none"/>
<path d="M300.0 644.3030449167975 Q 421.50395796201167 480.27270166808177 300.0 425.5959205851765" stroke-width="1.0" stroke="rgb(255,0,0)" stroke-opacity="0.3" fill="none"/>
<path d="M300.0 624.9521918765049 Q 410.753484050738 475.4349884080086 300.0 425.5959205851765" stroke-width="6.0" stroke="rgb(255,0,0)" stroke-opacity="0.3" fill="none"/>
<path d="M300.0 529.0361616550099 Q 357.46680059435187 451.45598085263487 300.0 425.5959205851765" stroke-width="2.0" stroke="rgb(255,0,0)" stroke-opacity="0.3" fill="none"/>
<path d="M300.0 575.9726128241815 Q 383.54260679944724 463.19009364492774 300.0 425.5959205851765" stroke-width="3.0" stroke="rgb(255,0,0)" stroke-opacity="0.3" fill="none"/>
<path d="M300.0 422.9815652004819 Q 298.54758034183635 424.94233173900284 300.0 425.5959205851765" stroke-width="5.0" stroke="rgb(0,0,255)" stroke-opacity="0.3" fill="none"/>
<path d="M300.0 661.3947414885573 Q 430.9993449463227 484.54562581102175 300.0 425.5959205851765" stroke-width="1.0" stroke="rgb(255,0,0)" stroke-opacity="0.3" fill="none"/>
<path d="M300.0 715.1263557412988 Q 351.1973686753665 646.009908029554 300.0 622.9710921256391" stroke-width="5.0" stroke="rgb(255,0,0)" stroke-opacity="0.3" fill="none"/>
<path d="M300.0 850.0 Q 426.1271710413116 679.7283190942293 300.0 622.9710921256391" stroke-width="1.0" stroke="rgb(255,0,0)" stroke-opacity="0.3" fill="none"/>
<path d="M300.0 443.0225093865819 Q 200.02856514496824 577.9839464408748 300.0 622.9710921256391" stroke-width="4.0" stroke="rgb(0,0,255)" stroke-opacity="0.3" fill="none"/>
<path d="M300.0 552.5356077761692 Q 260.8691753614056 605.3622210382716 300.0 622.9710921256391" stroke-width="1.0" stroke="rgb(0,0,255)" stroke-opacity="0.3" fill="none"/>
<path d="M300.0 425.5959205851765 Q 190.34712692196524 573.6272992405234 300.0 622.9710921256391" stroke-width="1.0" stroke="rgb(0,0,255)" stroke-opacity="0.3" fill="none"/>
<path d="M300.0 493.18279163333347 Q 227.89538861538577 590.5240170025627 300.0 622.9710921256391" stroke-width="3.0" stroke="rgb(0,0,255)" stroke-opacity="0.3" fill="none"/>
<path d="M300.0 537.4325658772286 Q 252.47859652866086 601.5864605635364 300.0 622.9710921256391" stroke-width="1.0" stroke="rgb(0,0,255)" stroke-opacity="0.3" fill="none"/>
<path d="M300.0 501.0313099935996 Q 232.25567659331142 592.4861465926292 300.0 622.9710921256391" stroke-width="1.0" stroke="rgb(0,0,255)" stroke-opacity="0.3" fill="none"/>
<path d="M300.0 624.9521918765049 Q 301.10061097270324 623.4663670633555 300.0 622.9710921256391" stroke-width="2.0" stroke="rgb(255,0,0)" stroke-opacity="0.3" fill="none"/>
<path d="M300.0 575.9726128241815 Q 273.8897337214125 611.2214723002746 300.0 622.9710921256391" stroke-width="2.0" stroke="rgb(0,0,255)" stroke-opacity="0.3" fill="none"/>
<path d="M300.0 422.9815652004819 Q 188.89470726380156 572.9737103943497 300.0 622.9710921256391" stroke-width="1.0" stroke="rgb(0,0,255)" stroke-opacity="0.3" fill="none"/>
<path d="M300.0 661.3947414885573 Q 321.3464718682879 632.5770044663686 300.0 622.9710921256391" stroke-width="3.0" stroke="rgb(255,0,0)" stroke-opacity="0.3" fill="none"/>
<path d="M300.0 392.70741424259916 Q 172.07573450942226 565.405172654879 300.0 622.9710921256391" stroke-width="1.0" stroke="rgb(0,0,255)" stroke-opacity="0.3" fill="none"/>
<path d="M300.0 741.8631853161771 Q 438.15577426824643 555.3528900540443 300.0 493.18279163333347" stroke-width="1.0" stroke="rgb(255,0,0)" stroke-opacity="0.3" fill="none"/>
<path d="M300.0 695.8183957375027 Q 412.57533561342734 543.8416926593758 300.0 493.18279163333347" stroke-width="1.0" stroke="rgb(255,0,0)" stroke-opacity="0.3" fill="none"/>
<path d="M300.0 715.1263557412988 Q 423.30198005998074 548.6686826603247 300.0 493.18279163333347" stroke-width="1.0" stroke="rgb(255,0,0)" stroke-opacity="0.3" fill="none"/>
<path d="M300.0 622.9710921256391 Q 372.10461138461426 525.6298667564099 300.0 493.18279163333347" stroke-width="39.0" stroke="rgb(255,0,0)" stroke-opacity="0.3" fill="none"/>
<path d="M300.0 537.4325658772286 Q 324.5832079132751 504.24523519430727 300.0 493.18279163333347" stroke-width="1.0" stroke="rgb(255,0,0)" stroke-opacity="0.3" fill="none"/>
<path d="M300.0 501.0313099935996 Q 304.3602879779256 495.14492122340005 300.0 493.18279163333347" stroke-width="1.0" stroke="rgb(255,0,0)" stroke-opacity="0.3" fill="none"/>
<path d="M300.0 644.3030449167975 Q 383.9556962685911 530.9628549541994 300.0 493.18279163333347" stroke-width="1.0" stroke="rgb(255,0,0)" stroke-opacity="0.3" fill="none"/>
<path d="M300.0 624.9521918765049 Q 373.20522235731744 526.1251416941263 300.0 493.18279163333347" stroke-width="1.0" stroke="rgb(255,0,0)" stroke-opacity="0.3" fill="none"/>
<path d="M300.0 529.0361616550099 Q 319.91853890093137 502.1461341387526 300.0 493.18279163333347" stroke-width="1.0" stroke="rgb(255,0,0)" stroke-opacity="0.3" fill="none"/>
<path d="M300.0 422.9815652004819 Q 260.9993186484158 475.63248502512056 300.0 493.18279163333347" stroke-width="4.0" stroke="rgb(0,0,255)" stroke-opacity="0.3" fill="none"/>
<path d="M300.0 661.3947414885573 Q 393.45108325290215 535.2357790971395 300.0 493.18279163333347" stroke-width="1.0" stroke="rgb(255,0,0)" stroke-opacity="0.3" fill="none"/>
<path d="M300.0 741.8631853161771 Q 413.5725663549714 588.5402207369657 300.0 537.4325658772286" stroke-width="2.0" stroke="rgb(255,0,0)" stroke-opacity="0.3" fill="none"/>
<path d="M300.0 715.1263557412988 Q 398.71877214670565 581.8560133432461 300.0 537.4325658772286" stroke-width="1.0" stroke="rgb(255,0,0)" stroke-opacity="0.3" fill="none"/>
<path d="M300.0 552.5356077761692 Q 308.3905788327447 541.2083263519637 300.0 537.4325658772286" stroke-width="1.0" stroke="rgb(255,0,0)" stroke-opacity="0.3" fill="none"/>
<path d="M300.0 501.0313099935996 Q 279.77708006465053 528.3322519063214 300.0 537.4325658772286" stroke-width="2.0" stroke="rgb(0,0,255)" stroke-opacity="0.3" fill="none"/>
<path d="M300.0 644.3030449167975 Q 359.372488355316 564.1501856371208 300.0 537.4325658772286" stroke-width="4.0" stroke="rgb(255,0,0)" stroke-opacity="0.3" fill="none"/>
<path d="M300.0 575.9726128241815 Q 321.4111371927516 547.0675776139668 300.0 537.4325658772286" stroke-width="2.0" stroke="rgb(255,0,0)" stroke-opacity="0.3" fill="none"/>
<path d="M300.0 392.70741424259916 Q 219.5971379807614 501.25127796857123 300.0 537.4325658772286" stroke-width="1.0" stroke="rgb(0,0,255)" stroke-opacity="0.3" fill="none"/>
<path d="M300.0 850.0 Q 493.8714944480002 588.2734824951997 300.0 501.0313099935996" stroke-width="2.0" stroke="rgb(255,0,0)" stroke-opacity="0.3" fill="none"/>
<path d="M300.0 552.5356077761692 Q 328.6134987680942 513.9073844392419 300.0 501.0313099935996" stroke-width="1.0" stroke="rgb(255,0,0)" stroke-opacity="0.3" fill="none"/>
<path d="M300.0 622.9710921256391 Q 367.7443234066886 531.5162555266095 300.0 501.0313099935996" stroke-width="5.0" stroke="rgb(255,0,0)" stroke-opacity="0.3" fill="none"/>
<path d="M300.0 493.18279163333347 Q 295.6397120220744 499.06918040353304 300.0 501.0313099935996" stroke-width="2.0" stroke="rgb(0,0,255)" stroke-opacity="0.3" fill="none"/>
<path d="M300.0 537.4325658772286 Q 320.22291993534947 510.13162396450684 300.0 501.0313099935996" stroke-width="2.0" stroke="rgb(255,0,0)" stroke-opacity="0.3" fill="none"/>
<path d="M300.0 624.9521918765049 Q 368.8449343793918 532.0115304643259 300.0 501.0313099935996" stroke-width="5.0" stroke="rgb(255,0,0)" stroke-opacity="0.3" fill="none"/>
<path d="M300.0 661.3947414885573 Q 389.0907952749765 541.122167867339 300.0 501.0313099935996" stroke-width="2.0" stroke="rgb(255,0,0)" stroke-opacity="0.3" fill="none"/>
<path d="M300.0 741.8631853161771 Q 354.2000779996554 668.6930800166424 300.0 644.3030449167975" stroke-width="2.0" stroke="rgb(255,0,0)" stroke-opacity="0.3" fill="none"/>
<path d="M300.0 715.1263557412988 Q 339.3462837913896 662.0088726229228 300.0 644.3030449167975" stroke-width="2.0" stroke="rgb(255,0,0)" stroke-opacity="0.3" fill="none"/>
<path d="M300.0 501.0313099935996 Q 220.4045917093345 608.485111185998 300.0 644.3030449167975" stroke-width="2.0" stroke="rgb(0,0,255)" stroke-opacity="0.3" fill="none"/>
<path d="M300.0 695.8183957375027 Q 339.37011325610985 642.6687428417544 300.0 624.9521918765049" stroke-width="1.0" stroke="rgb(255,0,0)" stroke-opacity="0.3" fill="none"/>
<path d="M300.0 715.1263557412988 Q 350.09675770266324 647.4957328427033 300.0 624.9521918765049" stroke-width="1.0" stroke="rgb(255,0,0)" stroke-opacity="0.3" fill="none"/>
<path d="M300.0 552.5356077761692 Q 259.7685643887024 606.8480458514209 300.0 624.9521918765049" stroke-width="1.0" stroke="rgb(0,0,255)" stroke-opacity="0.3" fill="none"/>
<path d="M300.0 622.9710921256391 Q 298.89938902729676 624.4569169387885 300.0 624.9521918765049" stroke-width="2.0" stroke="rgb(0,0,255)" stroke-opacity="0.3" fill="none"/>
<path d="M300.0 537.4325658772286 Q 251.37798555595762 603.0722853766858 300.0 624.9521918765049" stroke-width="1.0" stroke="rgb(0,0,255)" stroke-opacity="0.3" fill="none"/>
<path d="M300.0 644.3030449167975 Q 310.7504739112737 629.789905136578 300.0 624.9521918765049" stroke-width="1.0" stroke="rgb(255,0,0)" stroke-opacity="0.3" fill="none"/>
<path d="M300.0 575.9726128241815 Q 272.78912274870925 612.707297113424 300.0 624.9521918765049" stroke-width="1.0" stroke="rgb(0,0,255)" stroke-opacity="0.3" fill="none"/>
<path d="M300.0 661.3947414885573 Q 320.24586089558466 634.062829279518 300.0 624.9521918765049" stroke-width="1.0" stroke="rgb(255,0,0)" stroke-opacity="0.3" fill="none"/>
<path d="M300.0 443.0225093865819 Q 252.2146376286511 507.5327485879029 300.0 529.0361616550099" stroke-width="2.0" stroke="rgb(0,0,255)" stroke-opacity="0.3" fill="none"/>
<path d="M300.0 493.18279163333347 Q 280.08146109906863 520.0728191495908 300.0 529.0361616550099" stroke-width="1.0" stroke="rgb(0,0,255)" stroke-opacity="0.3" fill="none"/>
<path d="M300.0 392.70741424259916 Q 224.26180699310515 494.9539748019072 300.0 529.0361616550099" stroke-width="1.0" stroke="rgb(0,0,255)" stroke-opacity="0.3" fill="none"/>
<path d="M300.0 741.8631853161771 Q 392.1614291622198 617.4452559471804 300.0 575.9726128241815" stroke-width="5.0" stroke="rgb(255,0,0)" stroke-opacity="0.3" fill="none"/>
<path d="M300.0 695.8183957375027 Q 366.58099050740066 605.9340585525118 300.0 575.9726128241815" stroke-width="1.0" stroke="rgb(255,0,0)" stroke-opacity="0.3" fill="none"/>
<path d="M300.0 715.1263557412988 Q 377.30763495395405 610.7610485534608 300.0 575.9726128241815" stroke-width="6.0" stroke="rgb(255,0,0)" stroke-opacity="0.3" fill="none"/>
<path d="M300.0 850.0 Q 452.2374373198992 644.4794596181362 300.0 575.9726128241815" stroke-width="1.0" stroke="rgb(255,0,0)" stroke-opacity="0.3" fill="none"/>
<path d="M300.0 622.9710921256391 Q 326.1102662785875 587.722232649546 300.0 575.9726128241815" stroke-width="2.0" stroke="rgb(255,0,0)" stroke-opacity="0.3" fill="none"/>
<path d="M300.0 493.18279163333347 Q 254.00565489397331 555.2751575264696 300.0 575.9726128241815" stroke-width="1.0" stroke="rgb(0,0,255)" stroke-opacity="0.3" fill="none"/>
<path d="M300.0 501.0313099935996 Q 258.36594287189894 557.2372871165361 300.0 575.9726128241815" stroke-width="1.0" stroke="rgb(0,0,255)" stroke-opacity="0.3" fill="none"/>
<path d="M300.0 624.9521918765049 Q 327.21087725129075 588.2175075872624 300.0 575.9726128241815" stroke-width="1.0" stroke="rgb(255,0,0)" stroke-opacity="0.3" fill="none"/>
<path d="M300.0 741.8631853161771 Q 477.1564556198307 502.70197022940573 300.0 422.9815652004819" stroke-width="2.0" stroke="rgb(255,0,0)" stroke-opacity="0.3" fill="none"/>
<path d="M300.0 695.8183957375027 Q 451.57601696501155 491.1907728347371 300.0 422.9815652004819" stroke-width="7.0" stroke="rgb(255,0,0)" stroke-opacity="0.3" fill="none"/>
<path d="M300.0 715.1263557412988 Q 462.30266141156494 496.01776283568614 300.0 422.9815652004819" stroke-width="3.0" stroke="rgb(255,0,0)" stroke-opacity="0.3" fill="none"/>
<path d="M300.0 850.0 Q 537.23246377751 529.7361739003615 300.0 422.9815652004819" stroke-width="1.0" stroke="rgb(255,0,0)" stroke-opacity="0.3" fill="none"/>
<path d="M300.0 552.5356077761692 Q 371.974468097604 455.37007584440374 300.0 422.9815652004819" stroke-width="2.0" stroke="rgb(255,0,0)" stroke-opacity="0.3" fill="none"/>
<path d="M300.0 425.5959205851765 Q 301.45241965816365 423.63515404665554 300.0 422.9815652004819" stroke-width="9.0" stroke="rgb(255,0,0)" stroke-opacity="0.3" fill="none"/>
<path d="M300.0 622.9710921256391 Q 411.1052927361984 472.97894693177125 300.0 422.9815652004819" stroke-width="1.0" stroke="rgb(255,0,0)" stroke-opacity="0.3" fill="none"/>
<path d="M300.0 493.18279163333347 Q 339.0006813515842 440.5318718086948 300.0 422.9815652004819" stroke-width="7.0" stroke="rgb(255,0,0)" stroke-opacity="0.3" fill="none"/>
<path d="M300.0 537.4325658772286 Q 363.5838892648593 451.5943153696686 300.0 422.9815652004819" stroke-width="4.0" stroke="rgb(255,0,0)" stroke-opacity="0.3" fill="none"/>
<path d="M300.0 501.0313099935996 Q 343.3609693295098 442.4940013987614 300.0 422.9815652004819" stroke-width="1.0" stroke="rgb(255,0,0)" stroke-opacity="0.3" fill="none"/>
<path d="M300.0 644.3030449167975 Q 422.9563776201753 478.3119351295608 300.0 422.9815652004819" stroke-width="6.0" stroke="rgb(255,0,0)" stroke-opacity="0.3" fill="none"/>
<path d="M300.0 624.9521918765049 Q 412.2059037089017 473.4742218694877 300.0 422.9815652004819" stroke-width="5.0" stroke="rgb(255,0,0)" stroke-opacity="0.3" fill="none"/>
<path d="M300.0 529.0361616550099 Q 358.9192202525156 449.4952143141139 300.0 422.9815652004819" stroke-width="3.0" stroke="rgb(255,0,0)" stroke-opacity="0.3" fill="none"/>
<path d="M300.0 575.9726128241815 Q 384.9950264576109 461.2293271064068 300.0 422.9815652004819" stroke-width="6.0" stroke="rgb(255,0,0)" stroke-opacity="0.3" fill="none"/>
<path d="M300.0 661.3947414885573 Q 432.45176460448636 482.5848592725008 300.0 422.9815652004819" stroke-width="4.0" stroke="rgb(255,0,0)" stroke-opacity="0.3" fill="none"/>
<path d="M300.0 392.70741424259916 Q 283.1810272456207 415.4130274610112 300.0 422.9815652004819" stroke-width="3.0" stroke="rgb(0,0,255)" stroke-opacity="0.3" fill="none"/>
<path d="M300.0 230.0 Q 192.78801933306562 374.73617390036145 300.0 422.9815652004819" stroke-width="2.0" stroke="rgb(0,0,255)" stroke-opacity="0.3" fill="none"/>
<path d="M300.0 715.1263557412988 Q 329.8508968070786 674.8276450517426 300.0 661.3947414885573" stroke-width="1.0" stroke="rgb(255,0,0)" stroke-opacity="0.3" fill="none"/>
<path d="M300.0 622.9710921256391 Q 278.6535281317121 651.7888291478278 300.0 661.3947414885573" stroke-width="1.0" stroke="rgb(0,0,255)" stroke-opacity="0.3" fill="none"/>
<path d="M300.0 644.3030449167975 Q 290.50461301568896 657.1218173456173 300.0 661.3947414885573" stroke-width="1.0" stroke="rgb(0,0,255)" stroke-opacity="0.3" fill="none"/>
<path d="M300.0 529.0361616550099 Q 226.46745564802922 628.3050965301704 300.0 661.3947414885573" stroke-width="1.0" stroke="rgb(0,0,255)" stroke-opacity="0.3" fill="none"/>
<path d="M300.0 741.8631853161771 Q 493.97542837420997 479.9963570109937 300.0 392.70741424259916" stroke-width="1.0" stroke="rgb(255,0,0)" stroke-opacity="0.3" fill="none"/>
<path d="M300.0 622.9710921256391 Q 427.92426549057774 450.2733337133592 300.0 392.70741424259916" stroke-width="9.0" stroke="rgb(255,0,0)" stroke-opacity="0.3" fill="none"/>
<path d="M300.0 493.18279163333347 Q 355.8196541059635 417.82625859028275 300.0 392.70741424259916" stroke-width="9.0" stroke="rgb(255,0,0)" stroke-opacity="0.3" fill="none"/>
<path d="M300.0 422.9815652004819 Q 316.8189727543793 400.27595198206984 300.0 392.70741424259916" stroke-width="4.0" stroke="rgb(255,0,0)" stroke-opacity="0.3" fill="none"/>
<path d="M300.0 741.8631853161771 Q 584.368436286765 357.9657963290443 300.0 230.0" stroke-width="1.0" stroke="rgb(255,0,0)" stroke-opacity="0.3" fill="none"/>
<path d="M300.0 695.8183957375027 Q 558.7879976319459 346.45459893437567 300.0 230.0" stroke-width="1.0" stroke="rgb(255,0,0)" stroke-opacity="0.3" fill="none"/>
<path d="M300.0 715.1263557412988 Q 569.5146420784993 351.2815889353247 300.0 230.0" stroke-width="4.0" stroke="rgb(255,0,0)" stroke-opacity="0.3" fill="none"/>
<path d="M300.0 443.0225093865819 Q 418.345838548101 283.2556273466455 300.0 230.0" stroke-width="2.0" stroke="rgb(255,0,0)" stroke-opacity="0.3" fill="none"/>
<path d="M300.0 552.5356077761692 Q 479.18644876453845 310.6339019440423 300.0 230.0" stroke-width="3.0" stroke="rgb(255,0,0)" stroke-opacity="0.3" fill="none"/>
<path d="M300.0 425.5959205851765 Q 408.66440032509803 278.8989801462941 300.0 230.0" stroke-width="11.0" stroke="rgb(255,0,0)" stroke-opacity="0.3" fill="none"/>
<path d="M300.0 622.9710921256391 Q 518.3172734031328 328.2427730314098 300.0 230.0" stroke-width="8.0" stroke="rgb(255,0,0)" stroke-opacity="0.3" fill="none"/>
<path d="M300.0 493.18279163333347 Q 446.2126620185186 295.79569790833335 300.0 230.0" stroke-width="2.0" stroke="rgb(255,0,0)" stroke-opacity="0.3" fill="none"/>
<path d="M300.0 537.4325658772286 Q 470.7958699317937 306.85814146930716 300.0 230.0" stroke-width="2.0" stroke="rgb(255,0,0)" stroke-opacity="0.3" fill="none"/>
<path d="M300.0 501.0313099935996 Q 450.5729499964442 297.75782749839993 300.0 230.0" stroke-width="3.0" stroke="rgb(255,0,0)" stroke-opacity="0.3" fill="none"/>
<path d="M300.0 644.3030449167975 Q 530.1683582871096 333.5757612291994 300.0 230.0" stroke-width="1.0" stroke="rgb(255,0,0)" stroke-opacity="0.3" fill="none"/>
<path d="M300.0 624.9521918765049 Q 519.417884375836 328.7380479691262 300.0 230.0" stroke-width="2.0" stroke="rgb(255,0,0)" stroke-opacity="0.3" fill="none"/>
<path d="M300.0 529.0361616550099 Q 466.13120091944995 304.7590404137525 300.0 230.0" stroke-width="3.0" stroke="rgb(255,0,0)" stroke-opacity="0.3" fill="none"/>
<path d="M300.0 575.9726128241815 Q 492.20700712454527 316.49315320604535 300.0 230.0" stroke-width="2.0" stroke="rgb(255,0,0)" stroke-opacity="0.3" fill="none"/>
<path d="M300.0 422.9815652004819 Q 407.2119806669344 278.24539130012045 300.0 230.0" stroke-width="37.0" stroke="rgb(255,0,0)" stroke-opacity="0.3" fill="none"/>
<path d="M300.0 661.3947414885573 Q 539.6637452714208 337.84868537213936 300.0 230.0" stroke-width="2.0" stroke="rgb(255,0,0)" stroke-opacity="0.3" fill="none"/>
<circle class="node" r="3" style="fill: rgb(100,100,100); stroke: rgb(255,255,255); stroke-width:1.5" cx="300.0" cy="741.8631853161771"/>
<circle class="node" r="3" style="fill: rgb(100,100,100); stroke: rgb(255,255,255); stroke-width:1.5" cx="300.0" cy="695.8183957375027"/>
<circle class="node" r="3" style="fill: rgb(100,100,100); stroke: rgb(255,255,255); stroke-width:1.5" cx="300.0" cy="715.1263557412988"/>
<circle class="node" r="3" style="fill: rgb(100,100,100); stroke: rgb(255,255,255); stroke-width:1.5" cx="300.0" cy="850.0"/>
<circle class="node" r="3" style="fill: rgb(100,100,100); stroke: rgb(255,255,255); stroke-width:1.5" cx="300.0" cy="443.0225093865819"/>
<circle class="node" r="3" style="fill: rgb(100,100,100); stroke: rgb(255,255,255); stroke-width:1.5" cx="300.0" cy="552.5356077761692"/>
<circle class="node" r="3" style="fill: rgb(100,100,100); stroke: rgb(255,255,255); stroke-width:1.5" cx="300.0" cy="425.5959205851765"/>
<circle class="node" r="3" style="fill: rgb(100,100,100); stroke: rgb(255,255,255); stroke-width:1.5" cx="300.0" cy="622.9710921256391"/>
<circle class="node" r="3" style="fill: rgb(100,100,100); stroke: rgb(255,255,255); stroke-width:1.5" cx="300.0" cy="493.18279163333347"/>
<circle class="node" r="3" style="fill: rgb(100,100,100); stroke: rgb(255,255,255); stroke-width:1.5" cx="300.0" cy="537.4325658772286"/>
<circle class="node" r="3" style="fill: rgb(100,100,100); stroke: rgb(255,255,255); stroke-width:1.5" cx="300.0" cy="501.0313099935996"/>
<circle class="node" r="3" style="fill: rgb(100,100,100); stroke: rgb(255,255,255); stroke-width:1.5" cx="300.0" cy="644.3030449167975"/>
<circle class="node" r="3" style="fill: rgb(100,100,100); stroke: rgb(255,255,255); stroke-width:1.5" cx="300.0" cy="624.9521918765049"/>
<circle class="node" r="3" style="fill: rgb(100,100,100); stroke: rgb(255,255,255); stroke-width:1.5" cx="300.0" cy="529.0361616550099"/>
<circle class="node" r="3" style="fill: rgb(100,100,100); stroke: rgb(255,255,255); stroke-width:1.5" cx="300.0" cy="575.9726128241815"/>
<circle class="node" r="3" style="fill: rgb(100,100,100); stroke: rgb(255,255,255); stroke-width:1.5" cx="300.0" cy="422.9815652004819"/>
<circle class="node" r="3" style="fill: rgb(100,100,100); stroke: rgb(255,255,255); stroke-width:1.5" cx="300.0" cy="661.3947414885573"/>
<circle class="node" r="3" style="fill: rgb(100,100,100); stroke: rgb(255,255,255); stroke-width:1.5" cx="300.0" cy="392.70741424259916"/>
<circle class="node" r="3" style="fill: rgb(100,100,100); stroke: rgb(255,255,255); stroke-width:1.5" cx="300.0" cy="230.0"/>
</svg>