<svg width="600" height="1080" id="v1" xmlns="http://www.w3.org/2000/svg" xmlns:xlink="http://www.w3.org/1999/xlink">

        <style>
            .sans { font: 12px sans-serif; }
            .grey { stroke: rgb(150,150,150); stroke-width:0.5;}
        </style>
        <line x1="300.0" y1="172.5" x2="300.0" y2="907.5" stroke-width="0.5" stroke="rgb(150,150,150)" stroke-opacity="1"/>
<path d="M300.0 486.2697396967209 Q 246.56396686367555 558.4083844307589 300.0 582.4545993421049" stroke-width="1.0" stroke="rgb(0,0,255)" stroke-opacity="0.3" fill="none"/>
<path d="M300.0 850.0 Q 448.63633369883064 649.3409495065787 300.0 582.4545993421049" stroke-width="1.0" stroke="rgb(255,0,0)" stroke-opacity="0.3" fill="none"/>
<path d="M300.0 575.6790587877274 Q 296.2358108031236 580.7607142035106 300.0 582.4545993421049" stroke-width="3.0" stroke="rgb(0,0,255)" stroke-opacity="0.3" fill="none"/>
<path d="M300.0 693.1456725480083 Q 361.4950406699463 610.1273676435808 300.0 582.4545993421049" stroke-width="2.0" stroke="rgb(255,0,0)" stroke-opacity="0.3" fill="none"/>
<path d="M300.0 687.0054563539043 Q 358.08380945099964 608.5923135950547 300.0 582.4545993421049" stroke-width="2.0" stroke="rgb(255,0,0)" stroke-opacity="0.3" fill="none"/>
<path d="M300.0 636.463664699368 Q 330.00503630959065 595.9568656814207 300.0 582.4545993421049" stroke-width="1.0" stroke="rgb(255,0,0)" stroke-opacity="0.3" fill="none"/>
<path d="M300.0 697.2586320252274 Q 363.78001815729027 611.1556075128856 300.0 582.4545993421049" stroke-width="1.0" stroke="rgb(255,0,0)" stroke-opacity="0.3" fill="none"/>
<path d="M300.0 582.4545993421049 Q 353.43603313632445 510.3159546080668 300.0 486.2697396967209" stroke-width="6.0" stroke="rgb(255,0,0)" stroke-opacity="0.3" fill="none"/>
<path d="M300.0 697.2586320252274 Q 417.2160512936147 539.0169627788475 300.0 486.2697396967209" stroke-width="1.0" stroke="rgb(255,0,0)" stroke-opacity="0.3" fill="none"/>
<path d="M300.0 550.4764773049528 Q 335.6704097823511 502.32142409877883 300.0 486.2697396967209" stroke-width="2.0" stroke="rgb(255,0,0)" stroke-opacity="0.3" fill="none"/>
<path d="M300.0 511.3790688657337 Q 313.9496273161182 492.54707198897404 300.0 486.2697396967209" stroke-width="2.0" stroke="rgb(255,0,0)" stroke-opacity="0.3" fill="none"/>
<path d="M300.0 655.5718883970038 Q 394.05674927793495 528.5952768717916 300.0 486.2697396967209" stroke-width="3.0" stroke="rgb(255,0,0)" stroke-opacity="0.3" fill="none"/>
<path d="M300.0 761.4783887960583 Q 452.89369394407635 555.0719019715552 300.0 486.2697396967209" stroke-width="1.0" stroke="rgb(255,0,0)" stroke-opacity="0.3" fill="none"/>
<path d="M300.0 394.089247237319 Q 248.7886153003323 463.22461658187035 300.0 486.2697396967209" stroke-width="1.0" stroke="rgb(0,0,255)" stroke-opacity="0.3" fill="none"/>
<path d="M300.0 582.4545993421049 Q 303.7641891968764 577.3729439263218 300.0 575.6790587877274" stroke-width="3.0" stroke="rgb(255,0,0)" stroke-opacity="0.3" fill="none"/>
<path d="M300.0 693.1456725480083 Q 365.2592298668227 605.0457122277976 300.0 575.6790587877274" stroke-width="3.0" stroke="rgb(255,0,0)" stroke-opacity="0.3" fill="none"/>
<path d="M300.0 687.0054563539043 Q 361.847998647876 603.5106581792716 300.0 575.6790587877274" stroke-width="1.0" stroke="rgb(255,0,0)" stroke-opacity="0.3" fill="none"/>
<path d="M300.0 629.4596479728077 Q 329.8781051028224 589.1242060839975 300.0 575.6790587877274" stroke-width="3.0" stroke="rgb(255,0,0)" stroke-opacity="0.3" fill="none"/>
<path d="M300.0 655.5718883970038 Q 344.3849053384869 595.6522661900465 300.0 575.6790587877274" stroke-width="2.0" stroke="rgb(255,0,0)" stroke-opacity="0.3" fill="none"/>
<path d="M300.0 761.4783887960583 Q 403.22185000462827 622.1288912898101 300.0 575.6790587877274" stroke-width="2.0" stroke="rgb(255,0,0)" stroke-opacity="0.3" fill="none"/>
<path d="M300.0 687.0054563539043 Q 296.5887687810533 691.6106184994823 300.0 693.1456725480083" stroke-width="1.0" stroke="rgb(0,0,255)" stroke-opacity="0.3" fill="none"/>
<path d="M300.0 636.463664699368 Q 268.5099956396443 678.9751705858482 300.0 693.1456725480083" stroke-width="1.0" stroke="rgb(0,0,255)" stroke-opacity="0.3" fill="none"/>
<path d="M300.0 697.2586320252274 Q 302.28497748734395 694.173912417313 300.0 693.1456725480083" stroke-width="1.0" stroke="rgb(255,0,0)" stroke-opacity="0.3" fill="none"/>
<path d="M300.0 850.0 Q 390.55252424783095 727.7540922654282 300.0 687.0054563539043" stroke-width="1.0" stroke="rgb(255,0,0)" stroke-opacity="0.3" fill="none"/>
<path d="M300.0 636.463664699368 Q 271.92122685859096 674.3700084402702 300.0 687.0054563539043" stroke-width="1.0" stroke="rgb(0,0,255)" stroke-opacity="0.3" fill="none"/>
<path d="M300.0 697.2586320252274 Q 305.69620870629063 689.5687502717351 300.0 687.0054563539043" stroke-width="1.0" stroke="rgb(255,0,0)" stroke-opacity="0.3" fill="none"/>
<path d="M300.0 486.2697396967209 Q 216.55893055408495 598.9151834487062 300.0 636.463664699368" stroke-width="1.0" stroke="rgb(0,0,255)" stroke-opacity="0.3" fill="none"/>
<path d="M300.0 850.0 Q 418.63129738924 689.847748524526 300.0 636.463664699368" stroke-width="3.0" stroke="rgb(255,0,0)" stroke-opacity="0.3" fill="none"/>
<path d="M300.0 697.2586320252274 Q 333.7749818476997 651.6624065308329 300.0 636.463664699368" stroke-width="2.0" stroke="rgb(255,0,0)" stroke-opacity="0.3" fill="none"/>
<path d="M300.0 550.4764773049528 Q 252.22934033643602 614.9668678507642 300.0 636.463664699368" stroke-width="2.0" stroke="rgb(0,0,255)" stroke-opacity="0.3" fill="none"/>
<path d="M300.0 761.4783887960583 Q 369.4526244981613 667.7173457235406 300.0 636.463664699368" stroke-width="1.0" stroke="rgb(255,0,0)" stroke-opacity="0.3" fill="none"/>
<path d="M300.0 655.5718883970038 Q 276.84069798432023 686.8369461181715 300.0 697.2586320252274" stroke-width="1.0" stroke="rgb(0,0,255)" stroke-opacity="0.3" fill="none"/>
<path d="M300.0 761.4783887960583 Q 335.6776426504616 713.3135712179351 300.0 697.2586320252274" stroke-width="2.0" stroke="rgb(255,0,0)" stroke-opacity="0.3" fill="none"/>
<path d="M300.0 582.4545993421049 Q 430.019546495662 406.9282115729611 300.0 348.4194156499133" stroke-width="1.0" stroke="rgb(255,0,0)" stroke-opacity="0.3" fill="none"/>
<path d="M300.0 486.2697396967209 Q 376.58351335933753 382.8819966616152 300.0 348.4194156499133" stroke-width="1.0" stroke="rgb(255,0,0)" stroke-opacity="0.3" fill="none"/>
<path d="M300.0 466.39523306440583 Q 365.5421207858292 377.9133700035364 300.0 348.4194156499133" stroke-width="1.0" stroke="rgb(255,0,0)" stroke-opacity="0.3" fill="none"/>
<path d="M300.0 443.7179756316251 Q 352.94364443428435 372.2440556453412 300.0 348.4194156499133" stroke-width="1.0" stroke="rgb(255,0,0)" stroke-opacity="0.3" fill="none"/>
<path d="M300.0 629.4596479728077 Q 456.133462401608 418.67947373063686 300.0 348.4194156499133" stroke-width="2.0" stroke="rgb(255,0,0)" stroke-opacity="0.3" fill="none"/>
<path d="M300.0 524.8684039325083 Q 398.0272157125528 392.531662720562 300.0 348.4194156499133" stroke-width="2.0" stroke="rgb(255,0,0)" stroke-opacity="0.3" fill="none"/>
<path d="M300.0 550.4764773049528 Q 412.25392314168863 398.93368106367313 300.0 348.4194156499133" stroke-width="4.0" stroke="rgb(255,0,0)" stroke-opacity="0.3" fill="none"/>
<path d="M300.0 582.4545993421049 Q 364.4774257098328 495.4100746338306 300.0 466.39523306440583" stroke-width="1.0" stroke="rgb(255,0,0)" stroke-opacity="0.3" fill="none"/>
<path d="M300.0 486.2697396967209 Q 311.04139257350835 471.36385972248456 300.0 466.39523306440583" stroke-width="1.0" stroke="rgb(255,0,0)" stroke-opacity="0.3" fill="none"/>
<path d="M300.0 575.6790587877274 Q 360.7132365129564 493.7161894952362 300.0 466.39523306440583" stroke-width="1.0" stroke="rgb(255,0,0)" stroke-opacity="0.3" fill="none"/>
<path d="M300.0 693.1456725480083 Q 425.9724663797791 523.0828429353064 300.0 466.39523306440583" stroke-width="5.0" stroke="rgb(255,0,0)" stroke-opacity="0.3" fill="none"/>
<path d="M300.0 687.0054563539043 Q 422.56123516083244 521.5477888867804 300.0 466.39523306440583" stroke-width="5.0" stroke="rgb(255,0,0)" stroke-opacity="0.3" fill="none"/>
<path d="M300.0 636.463664699368 Q 394.48246201942345 508.91234097314634 300.0 466.39523306440583" stroke-width="3.0" stroke="rgb(255,0,0)" stroke-opacity="0.3" fill="none"/>
<path d="M300.0 629.4596479728077 Q 390.59134161577884 507.1613367915063 300.0 466.39523306440583" stroke-width="3.0" stroke="rgb(255,0,0)" stroke-opacity="0.3" fill="none"/>
<path d="M300.0 524.8684039325083 Q 332.4850949267236 481.01352578143144 300.0 466.39523306440583" stroke-width="1.0" stroke="rgb(255,0,0)" stroke-opacity="0.3" fill="none"/>
<path d="M300.0 550.4764773049528 Q 346.71180235585945 487.4155441245426 300.0 466.39523306440583" stroke-width="2.0" stroke="rgb(255,0,0)" stroke-opacity="0.3" fill="none"/>
<path d="M300.0 575.6790587877274 Q 373.31171286450126 476.7082464206507 300.0 443.7179756316251" stroke-width="2.0" stroke="rgb(255,0,0)" stroke-opacity="0.3" fill="none"/>
<path d="M300.0 693.1456725480083 Q 438.57094273132395 506.07489986072096 300.0 443.7179756316251" stroke-width="3.0" stroke="rgb(255,0,0)" stroke-opacity="0.3" fill="none"/>
<path d="M300.0 687.0054563539043 Q 435.15971151237727 504.5398458121949 300.0 443.7179756316251" stroke-width="2.0" stroke="rgb(255,0,0)" stroke-opacity="0.3" fill="none"/>
<path d="M300.0 636.463664699368 Q 407.0809383709683 491.9043978985609 300.0 443.7179756316251" stroke-width="5.0" stroke="rgb(255,0,0)" stroke-opacity="0.3" fill="none"/>
<path d="M300.0 697.2586320252274 Q 440.85592021866796 507.1031397300257 300.0 443.7179756316251" stroke-width="3.0" stroke="rgb(255,0,0)" stroke-opacity="0.3" fill="none"/>
<path d="M300.0 629.4596479728077 Q 403.1898179673237 490.1533937169208 300.0 443.7179756316251" stroke-width="3.0" stroke="rgb(255,0,0)" stroke-opacity="0.3" fill="none"/>
<path d="M300.0 524.8684039325083 Q 345.08357127826844 464.0055827068459 300.0 443.7179756316251" stroke-width="4.0" stroke="rgb(255,0,0)" stroke-opacity="0.3" fill="none"/>
<path d="M300.0 550.4764773049528 Q 359.3102787074043 470.40760104995707 300.0 443.7179756316251" stroke-width="1.0" stroke="rgb(255,0,0)" stroke-opacity="0.3" fill="none"/>
<path d="M300.0 511.3790688657337 Q 337.58949624117145 460.63324894015227 300.0 443.7179756316251" stroke-width="2.0" stroke="rgb(255,0,0)" stroke-opacity="0.3" fill="none"/>
<path d="M300.0 761.4783887960583 Q 476.5335628691296 523.1580789227335 300.0 443.7179756316251" stroke-width="3.0" stroke="rgb(255,0,0)" stroke-opacity="0.3" fill="none"/>
<path d="M300.0 850.0 Q 422.5224177928846 684.5947359796057 300.0 629.4596479728077" stroke-width="1.0" stroke="rgb(255,0,0)" stroke-opacity="0.3" fill="none"/>
<path d="M300.0 693.1456725480083 Q 335.38112476400033 645.3811541166078 300.0 629.4596479728077" stroke-width="4.0" stroke="rgb(255,0,0)" stroke-opacity="0.3" fill="none"/>
<path d="M300.0 687.0054563539043 Q 331.96989354505365 643.8461000680818 300.0 629.4596479728077" stroke-width="1.0" stroke="rgb(255,0,0)" stroke-opacity="0.3" fill="none"/>
<path d="M300.0 636.463664699368 Q 303.8911204036446 631.2106521544478 300.0 629.4596479728077" stroke-width="1.0" stroke="rgb(255,0,0)" stroke-opacity="0.3" fill="none"/>
<path d="M300.0 697.2586320252274 Q 337.6661022513442 646.4093939859126 300.0 629.4596479728077" stroke-width="2.0" stroke="rgb(255,0,0)" stroke-opacity="0.3" fill="none"/>
<path d="M300.0 524.8684039325083 Q 241.89375331094476 603.3118369627329 300.0 629.4596479728077" stroke-width="1.0" stroke="rgb(0,0,255)" stroke-opacity="0.3" fill="none"/>
<path d="M300.0 550.4764773049528 Q 256.1204607400806 609.7138553058439 300.0 629.4596479728077" stroke-width="1.0" stroke="rgb(0,0,255)" stroke-opacity="0.3" fill="none"/>
<path d="M300.0 582.4545993421049 Q 331.9923307831092 539.2649527849075 300.0 524.8684039325083" stroke-width="1.0" stroke="rgb(255,0,0)" stroke-opacity="0.3" fill="none"/>
<path d="M300.0 486.2697396967209 Q 278.5562976467848 515.2187378735614 300.0 524.8684039325083" stroke-width="1.0" stroke="rgb(0,0,255)" stroke-opacity="0.3" fill="none"/>
<path d="M300.0 575.6790587877274 Q 328.2281415862328 537.571067646313 300.0 524.8684039325083" stroke-width="1.0" stroke="rgb(255,0,0)" stroke-opacity="0.3" fill="none"/>
<path d="M300.0 693.1456725480083 Q 393.4873714530556 566.9377210863832 300.0 524.8684039325083" stroke-width="1.0" stroke="rgb(255,0,0)" stroke-opacity="0.3" fill="none"/>
<path d="M300.0 687.0054563539043 Q 390.0761402341089 565.4026670378573 300.0 524.8684039325083" stroke-width="1.0" stroke="rgb(255,0,0)" stroke-opacity="0.3" fill="none"/>
<path d="M300.0 636.463664699368 Q 361.99736709269985 552.7672191242232 300.0 524.8684039325083" stroke-width="1.0" stroke="rgb(255,0,0)" stroke-opacity="0.3" fill="none"/>
<path d="M300.0 697.2586320252274 Q 395.7723489403995 567.965960955688 300.0 524.8684039325083" stroke-width="1.0" stroke="rgb(255,0,0)" stroke-opacity="0.3" fill="none"/>
<path d="M300.0 466.39523306440583 Q 267.5149050732764 510.25011121548266 300.0 524.8684039325083" stroke-width="1.0" stroke="rgb(0,0,255)" stroke-opacity="0.3" fill="none"/>
<path d="M300.0 629.4596479728077 Q 358.10624668905524 551.0162149425831 300.0 524.8684039325083" stroke-width="4.0" stroke="rgb(255,0,0)" stroke-opacity="0.3" fill="none"/>
<path d="M300.0 550.4764773049528 Q 314.22670742913584 531.2704222756195 300.0 524.8684039325083" stroke-width="2.0" stroke="rgb(255,0,0)" stroke-opacity="0.3" fill="none"/>
<path d="M300.0 575.6790587877274 Q 314.001434157097 556.7771226756465 300.0 550.4764773049528" stroke-width="3.0" stroke="rgb(255,0,0)" stroke-opacity="0.3" fill="none"/>
<path d="M300.0 693.1456725480083 Q 379.26066402391973 586.1437761157167 300.0 550.4764773049528" stroke-width="3.0" stroke="rgb(255,0,0)" stroke-opacity="0.3" fill="none"/>
<path d="M300.0 687.0054563539043 Q 375.84943280497305 584.6087220671907 300.0 550.4764773049528" stroke-width="4.0" stroke="rgb(255,0,0)" stroke-opacity="0.3" fill="none"/>
<path d="M300.0 636.463664699368 Q 347.770659663564 571.9732741535566 300.0 550.4764773049528" stroke-width="1.0" stroke="rgb(255,0,0)" stroke-opacity="0.3" fill="none"/>
<path d="M300.0 697.2586320252274 Q 381.5456415112636 587.1720159850215 300.0 550.4764773049528" stroke-width="1.0" stroke="rgb(255,0,0)" stroke-opacity="0.3" fill="none"/>
<path d="M300.0 629.4596479728077 Q 343.8795392599194 570.2222699719166 300.0 550.4764773049528" stroke-width="5.0" stroke="rgb(255,0,0)" stroke-opacity="0.3" fill="none"/>
<path d="M300.0 655.5718883970038 Q 358.3863394955839 576.7503300779656 300.0 550.4764773049528" stroke-width="1.0" stroke="rgb(255,0,0)" stroke-opacity="0.3" fill="none"/>
<path d="M300.0 373.5171435301261 Q 201.68925901398515 506.23664386124614 300.0 550.4764773049528" stroke-width="1.0" stroke="rgb(0,0,255)" stroke-opacity="0.3" fill="none"/>
<path d="M300.0 582.4545993421049 Q 339.4864058202062 529.1479514848265 300.0 511.3790688657337" stroke-width="1.0" stroke="rgb(255,0,0)" stroke-opacity="0.3" fill="none"/>
<path d="M300.0 575.6790587877274 Q 335.7222166233298 527.4540663462321 300.0 511.3790688657337" stroke-width="1.0" stroke="rgb(255,0,0)" stroke-opacity="0.3" fill="none"/>
<path d="M300.0 693.1456725480083 Q 400.98144649015256 556.8207197863023 300.0 511.3790688657337" stroke-width="2.0" stroke="rgb(255,0,0)" stroke-opacity="0.3" fill="none"/>
<path d="M300.0 697.2586320252274 Q 403.2664239774965 557.8489596556071 300.0 511.3790688657337" stroke-width="5.0" stroke="rgb(255,0,0)" stroke-opacity="0.3" fill="none"/>
<path d="M300.0 629.4596479728077 Q 365.60032172615223 540.8992136425022 300.0 511.3790688657337" stroke-width="1.0" stroke="rgb(255,0,0)" stroke-opacity="0.3" fill="none"/>
<path d="M300.0 550.4764773049528 Q 321.72078246623283 521.1534209755384 300.0 511.3790688657337" stroke-width="1.0" stroke="rgb(255,0,0)" stroke-opacity="0.3" fill="none"/>
<path d="M300.0 761.4783887960583 Q 438.94406662795814 573.9038988483148 300.0 511.3790688657337" stroke-width="1.0" stroke="rgb(255,0,0)" stroke-opacity="0.3" fill="none"/>
<path d="M300.0 850.0 Q 408.0156175572201 704.1789162977528 300.0 655.5718883970038" stroke-width="2.0" stroke="rgb(255,0,0)" stroke-opacity="0.3" fill="none"/>
<path d="M300.0 629.4596479728077 Q 285.4931997643355 649.0438282909547 300.0 655.5718883970038" stroke-width="1.0" stroke="rgb(0,0,255)" stroke-opacity="0.3" fill="none"/>
<path d="M300.0 761.4783887960583 Q 358.8369446661414 682.0485134967674 300.0 655.5718883970038" stroke-width="2.0" stroke="rgb(255,0,0)" stroke-opacity="0.3" fill="none"/>
<path d="M300.0 582.4545993421049 Q 404.64741783599214 441.18058526351547 300.0 394.089247237319" stroke-width="1.0" stroke="rgb(255,0,0)" stroke-opacity="0.3" fill="none"/>
<path d="M300.0 486.2697396967209 Q 351.2113846996677 417.1343703521695 300.0 394.089247237319" stroke-width="1.0" stroke="rgb(255,0,0)" stroke-opacity="0.3" fill="none"/>
<path d="M300.0 687.0054563539043 Q 462.73122728699184 467.31829951646534 300.0 394.089247237319" stroke-width="1.0" stroke="rgb(255,0,0)" stroke-opacity="0.3" fill="none"/>
<path d="M300.0 697.2586320252274 Q 468.4274359932824 469.8815934342961 300.0 394.089247237319" stroke-width="2.0" stroke="rgb(255,0,0)" stroke-opacity="0.3" fill="none"/>
<path d="M300.0 466.39523306440583 Q 340.16999212615934 412.16574369409074 300.0 394.089247237319" stroke-width="3.0" stroke="rgb(255,0,0)" stroke-opacity="0.3" fill="none"/>
<path d="M300.0 443.7179756316251 Q 327.5715157746145 406.4964293358955 300.0 394.089247237319" stroke-width="2.0" stroke="rgb(255,0,0)" stroke-opacity="0.3" fill="none"/>
<path d="M300.0 629.4596479728077 Q 430.7613337419382 452.9318474211912 300.0 394.089247237319" stroke-width="1.0" stroke="rgb(255,0,0)" stroke-opacity="0.3" fill="none"/>
<path d="M300.0 524.8684039325083 Q 372.65508705288295 426.78403641111635 300.0 394.089247237319" stroke-width="2.0" stroke="rgb(255,0,0)" stroke-opacity="0.3" fill="none"/>
<path d="M300.0 550.4764773049528 Q 386.8817944820188 433.1860547542275 300.0 394.089247237319" stroke-width="1.0" stroke="rgb(255,0,0)" stroke-opacity="0.3" fill="none"/>
<path d="M300.0 486.2697396967209 Q 393.5467843066944 359.9815808826834 300.0 317.8855279446709" stroke-width="1.0" stroke="rgb(255,0,0)" stroke-opacity="0.3" fill="none"/>
<path d="M300.0 693.1456725480083 Q 508.47785811296524 411.70056409550523 300.0 317.8855279446709" stroke-width="2.0" stroke="rgb(255,0,0)" stroke-opacity="0.3" fill="none"/>
<path d="M300.0 687.0054563539043 Q 505.06662689401855 410.16551004697925 300.0 317.8855279446709" stroke-width="1.0" stroke="rgb(255,0,0)" stroke-opacity="0.3" fill="none"/>
<path d="M300.0 697.2586320252274 Q 510.76283560030913 412.72880396481 300.0 317.8855279446709" stroke-width="1.0" stroke="rgb(255,0,0)" stroke-opacity="0.3" fill="none"/>
<path d="M300.0 443.7179756316251 Q 369.9069153816412 349.3436398664095 300.0 317.8855279446709" stroke-width="1.0" stroke="rgb(255,0,0)" stroke-opacity="0.3" fill="none"/>
<path d="M300.0 629.4596479728077 Q 473.0967333489649 395.7790579517051 300.0 317.8855279446709" stroke-width="1.0" stroke="rgb(255,0,0)" stroke-opacity="0.3" fill="none"/>
<path d="M300.0 550.4764773049528 Q 429.2171940890455 376.0332652847414 300.0 317.8855279446709" stroke-width="1.0" stroke="rgb(255,0,0)" stroke-opacity="0.3" fill="none"/>
<path d="M300.0 511.3790688657337 Q 407.4964116228127 366.2589131749366 300.0 317.8855279446709" stroke-width="2.0" stroke="rgb(255,0,0)" stroke-opacity="0.3" fill="none"/>
<path d="M300.0 655.5718883970038 Q 487.6035335846294 402.3071180577541 300.0 317.8855279446709" stroke-width="1.0" stroke="rgb(255,0,0)" stroke-opacity="0.3" fill="none"/>
<path d="M300.0 761.4783887960583 Q 546.4404782507708 428.78374315751773 300.0 317.8855279446709" stroke-width="1.0" stroke="rgb(255,0,0)" stroke-opacity="0.3" fill="none"/>
<path d="M300.0 394.089247237319 Q 342.3353996070267 336.93645776783296 300.0 317.8855279446709" stroke-width="1.0" stroke="rgb(255,0,0)" stroke-opacity="0.3" fill="none"/>
<path d="M300.0 373.5171435301261 Q 330.90645310303063 331.7934318410347 300.0 317.8855279446709" stroke-width="6.0" stroke="rgb(255,0,0)" stroke-opacity="0.3" fill="none"/>
<path d="M300.0 582.4545993421049 Q 416.07636433998823 425.7515074831208 300.0 373.5171435301261" stroke-width="3.0" stroke="rgb(255,0,0)" stroke-opacity="0.3" fill="none"/>
<path d="M300.0 486.2697396967209 Q 362.6403312036638 401.70529257177475 300.0 373.5171435301261" stroke-width="6.0" stroke="rgb(255,0,0)" stroke-opacity="0.3" fill="none"/>
<path d="M300.0 575.6790587877274 Q 412.31217514311186 424.0576223445264 300.0 373.5171435301261" stroke-width="1.0" stroke="rgb(255,0,0)" stroke-opacity="0.3" fill="none"/>
<path d="M300.0 693.1456725480083 Q 477.57140500993455 453.4242757845966 300.0 373.5171435301261" stroke-width="2.0" stroke="rgb(255,0,0)" stroke-opacity="0.3" fill="none"/>
<path d="M300.0 687.0054563539043 Q 474.16017379098787 451.8892217360706 300.0 373.5171435301261" stroke-width="2.0" stroke="rgb(255,0,0)" stroke-opacity="0.3" fill="none"/>
<path d="M300.0 697.2586320252274 Q 479.8563824972785 454.4525156539014 300.0 373.5171435301261" stroke-width="3.0" stroke="rgb(255,0,0)" stroke-opacity="0.3" fill="none"/>
<path d="M300.0 348.4194156499133 Q 286.05681784432625 367.24271156007285 300.0 373.5171435301261" stroke-width="1.0" stroke="rgb(0,0,255)" stroke-opacity="0.3" fill="none"/>
<path d="M300.0 466.39523306440583 Q 351.59893863015543 396.736665913696 300.0 373.5171435301261" stroke-width="2.0" stroke="rgb(255,0,0)" stroke-opacity="0.3" fill="none"/>
<path d="M300.0 443.7179756316251 Q 339.0004622786106 391.06735155550086 300.0 373.5171435301261" stroke-width="1.0" stroke="rgb(255,0,0)" stroke-opacity="0.3" fill="none"/>
<path d="M300.0 629.4596479728077 Q 442.1902802459342 437.5027696407965 300.0 373.5171435301261" stroke-width="1.0" stroke="rgb(255,0,0)" stroke-opacity="0.3" fill="none"/>
<path d="M300.0 524.8684039325083 Q 384.084033556879 411.3549586307216 300.0 373.5171435301261" stroke-width="13.0" stroke="rgb(255,0,0)" stroke-opacity="0.3" fill="none"/>
<path d="M300.0 550.4764773049528 Q 398.3107409860148 417.75697697383276 300.0 373.5171435301261" stroke-width="10.0" stroke="rgb(255,0,0)" stroke-opacity="0.3" fill="none"/>
<path d="M300.0 511.3790688657337 Q 376.58995851978204 407.98262486402797 300.0 373.5171435301261" stroke-width="2.0" stroke="rgb(255,0,0)" stroke-opacity="0.3" fill="none"/>
<path d="M300.0 655.5718883970038 Q 456.69708048159873 444.0308297468455 300.0 373.5171435301261" stroke-width="2.0" stroke="rgb(255,0,0)" stroke-opacity="0.3" fill="none"/>
<path d="M300.0 394.089247237319 Q 311.4289465039961 378.66016945692434 300.0 373.5171435301261" stroke-width="2.0" stroke="rgb(255,0,0)" stroke-opacity="0.3" fill="none"/>
<path d="M300.0 582.4545993421049 Q 495.8081107456138 318.1136498355262 300.0 230.0" stroke-width="1.0" stroke="rgb(255,0,0)" stroke-opacity="0.3" fill="none"/>
<path d="M300.0 486.2697396967209 Q 442.37207760928936 294.06743492418025 300.0 230.0" stroke-width="5.0" stroke="rgb(255,0,0)" stroke-opacity="0.3" fill="none"/>
<path d="M300.0 466.39523306440583 Q 431.330685035781 289.09880826610146 300.0 230.0" stroke-width="2.0" stroke="rgb(255,0,0)" stroke-opacity="0.3" fill="none"/>
<path d="M300.0 443.7179756316251 Q 418.7322086842362 283.42949390790625 300.0 230.0" stroke-width="1.0" stroke="rgb(255,0,0)" stroke-opacity="0.3" fill="none"/>
<path d="M300.0 524.8684039325083 Q 463.8157799625046 303.71710098312707 300.0 230.0" stroke-width="2.0" stroke="rgb(255,0,0)" stroke-opacity="0.3" fill="none"/>
<path d="M300.0 550.4764773049528 Q 478.04248739164046 310.1191193262382 300.0 230.0" stroke-width="1.0" stroke="rgb(255,0,0)" stroke-opacity="0.3" fill="none"/>
<path d="M300.0 511.3790688657337 Q 456.32170492540763 300.3447672164334 300.0 230.0" stroke-width="2.0" stroke="rgb(255,0,0)" stroke-opacity="0.3" fill="none"/>
<path d="M300.0 317.8855279446709 Q 348.82529330259496 251.97138198616773 300.0 230.0" stroke-width="1.0" stroke="rgb(255,0,0)" stroke-opacity="0.3" fill="none"/>
<path d="M300.0 373.5171435301261 Q 379.7317464056256 265.8792858825315 300.0 230.0" stroke-width="10.0" stroke="rgb(255,0,0)" stroke-opacity="0.3" fill="none"/>
<circle class="node" r="3" style="fill: rgb(100,100,100); stroke: rgb(255,255,255); stroke-width:1.5" cx="300.0" cy="582.4545993421049"/>
<circle class="node" r="3" style="fill: rgb(100,100,100); stroke: rgb(255,255,255); stroke-width:1.5" cx="300.0" cy="486.2697396967209"/>
<circle class="node" r="3" style="fill: rgb(100,100,100); stroke: rgb(255,255,255); stroke-width:1.5" cx="300.0" cy="850.0"/>
<circle class="node" r="3" style="fill: rgb(100,100,100); stroke: rgb(255,255,255); stroke-width:1.5" cx="300.0" cy="575.6790587877274"/>
<circle class="node" r="3" style="fill: rgb(100,100,100); stroke: rgb(255,255,255); stroke-width:1.5" cx="300.0" cy="693.1456725480083"/>
<circle class="node" r="3" style="fill: rgb(100,100,100); stroke: rgb(255,255,255); stroke-width:1.5" cx="300.0" cy="687.0054563539043"/>
<circle class="node" r="3" style="fill: rgb(100,100,100); stroke: rgb(255,255,255); stroke-width:1.5" cx="300.0" cy="636.463664699368"/>
<circle class="node" r="3" style="fill: rgb(100,100,100); stroke: rgb(255,255,255); stroke-width:1.5" cx="300.0" cy="697.2586320252274"/>
<circle class="node" r="3" style="fill: rgb(100,100,100); stroke: rgb(255,255,255); stroke-width:1.5" cx="300.0" cy="348.4194156499133"/>
<circle class="node" r="3" style="fill: rgb(100,100,100); stroke: rgb(255,255,255); stroke-width:1.5" cx="300.0" cy="466.39523306440583"/>
<circle class="node" r="3" style="fill: rgb(100,100,100); stroke: rgb(255,255,255); stroke-width:1.5" cx="300.0" cy="443.7179756316251"/>
<circle class="node" r="3" style="fill: rgb(100,100,100); stroke: rgb(255,255,255); stroke-width:1.5" cx="300.0" cy="629.4596479728077"/>
<circle class="node" r="3" style="fill: rgb(100,100,100); stroke: rgb(255,255,255); stroke-width:1.5" cx="300.0" cy="524.8684039325083"/>
<circle class="node" r="3" style="fill: rgb(100,100,100); stroke: rgb(255,255,255); stroke-width:1.5" cx="300.0" cy="550.4764773049528"/>
<circle class="node" r="3" style="fill: rgb(100,100,100); stroke: rgb(255,255,255); stroke-width:1.5" cx="300.0" cy="511.3790688657337"/>
<circle class="node" r="3" style="fill: rgb(100,100,100); stroke: rgb(255,255,255); stroke-width:1.5" cx="300.0" cy="655.5718883970038"/>
<circle class="node" r="3" style="fill: rgb(100,100,100); stroke: rgb(255,255,255); stroke-width:1.5" cx="300.0" cy="761.4783887960583"/>
<circle class="node" r="3" style="fill: rgb(100,100,100); stroke: rgb(255,255,255); stroke-width:1.5" cx="300.0" cy="394.089247237319"/>
<circle class="node" r="3" style="fill: rgb(100,100,100); stroke: rgb(255,255,255); stroke-width:1.5" cx="300.0" cy="317.8855279446709"/>
<circle class="node" r="3" style="fill: rgb(100,100,100); stroke: rgb(255,255,255); stroke-width:1.5" cx="300.0" cy="373.5171435301261"/>
<circle class="node" r="3" style="fill: rgb(100,100,100); stroke: rgb(255,255,255); stroke-width:1.5" cx="300.0" cy="230.0"/>
</svg>