<svg width="600" height="1080" id="v1" xmlns="http://www.w3.org/2000/svg" xmlns:xlink="http://www.w3.org/1999/xlink">

        <style>
            .sans { font: 12px sans-serif; }
            .grey { stroke: rgb(150,150,150); stroke-width:0.5;}
        </style>
        <line x1="300.0" y1="172.5" x2="300.0" y2="907.5" stroke-width="0.5" stroke="rgb(150,150,150)" stroke-opacity="1"/>
<path d="M300.0 693.077477941425 Q 307.5714953263299 682.8559592508796 300.0 679.4487863540311" stroke-width="1.0" stroke="rgb(255,0,0)" stroke-opacity="0.3" fill="none"/>
<path d="M300.0 650.8419066368602 Q 284.1072890460162 672.2970664247383 300.0 679.4487863540311" stroke-width="2.0" stroke="rgb(0,0,255)" stroke-opacity="0.3" fill="none"/>
<path d="M300.0 819.3440263310808 Q 377.7195777650276 714.4225963482935 300.0 679.4487863540311" stroke-width="2.0" stroke="rgb(255,0,0)" stroke-opacity="0.3" fill="none"/>
<path d="M300.0 721.9696852269644 Q 323.6227215960741 690.0790110722644 300.0 679.4487863540311" stroke-width="1.0" stroke="rgb(255,0,0)" stroke-opacity="0.3" fill="none"/>
<path d="M300.0 667.3812309827181 Q 293.2958025714928 676.4318975112028 300.0 679.4487863540311" stroke-width="1.0" stroke="rgb(0,0,255)" stroke-opacity="0.3" fill="none"/>
<path d="M300.0 819.3440263310808 Q 370.1480824386977 724.6441150388389 300.0 693.077477941425" stroke-width="3.0" stroke="rgb(255,0,0)" stroke-opacity="0.3" fill="none"/>
<path d="M300.0 789.220019335608 Q 353.41252299676836 717.1131132899707 300.0 693.077477941425" stroke-width="1.0" stroke="rgb(255,0,0)" stroke-opacity="0.3" fill="none"/>
<path d="M300.0 793.489471350758 Q 355.7844407829628 718.1804762937581 300.0 693.077477941425" stroke-width="1.0" stroke="rgb(255,0,0)" stroke-opacity="0.3" fill="none"/>
<path d="M300.0 629.1764433779038 Q 264.4994252424882 677.1022193005447 300.0 693.077477941425" stroke-width="1.0" stroke="rgb(0,0,255)" stroke-opacity="0.3" fill="none"/>
<path d="M300.0 850.0 Q 387.1791789214306 732.3081084560687 300.0 693.077477941425" stroke-width="1.0" stroke="rgb(255,0,0)" stroke-opacity="0.3" fill="none"/>
<path d="M300.0 679.4487863540311 Q 315.8927109539838 657.993626566153 300.0 650.8419066368602" stroke-width="3.0" stroke="rgb(255,0,0)" stroke-opacity="0.3" fill="none"/>
<path d="M300.0 693.077477941425 Q 323.4642062803137 661.4007994630015 300.0 650.8419066368602" stroke-width="1.0" stroke="rgb(255,0,0)" stroke-opacity="0.3" fill="none"/>
<path d="M300.0 819.3440263310808 Q 393.6122887190114 692.9674365604154 300.0 650.8419066368602" stroke-width="2.0" stroke="rgb(255,0,0)" stroke-opacity="0.3" fill="none"/>
<path d="M300.0 721.9696852269644 Q 339.5154325500579 668.6238512843863 300.0 650.8419066368602" stroke-width="2.0" stroke="rgb(255,0,0)" stroke-opacity="0.3" fill="none"/>
<path d="M300.0 629.1764433779038 Q 287.96363152280196 645.4255408221211 300.0 650.8419066368602" stroke-width="1.0" stroke="rgb(0,0,255)" stroke-opacity="0.3" fill="none"/>
<path d="M300.0 526.6989057246034 Q 231.0316661598573 619.806156408796 300.0 650.8419066368602" stroke-width="1.0" stroke="rgb(0,0,255)" stroke-opacity="0.3" fill="none"/>
<path d="M300.0 693.077477941425 Q 283.9487737302558 714.7466334055796 300.0 721.9696852269644" stroke-width="1.0" stroke="rgb(0,0,255)" stroke-opacity="0.3" fill="none"/>
<path d="M300.0 667.3812309827181 Q 269.6730809754187 708.3225716659028 300.0 721.9696852269644" stroke-width="1.0" stroke="rgb(0,0,255)" stroke-opacity="0.3" fill="none"/>
<path d="M300.0 686.4482562874505 Q 280.26587281138114 713.0893279920859 300.0 721.9696852269644" stroke-width="1.0" stroke="rgb(0,0,255)" stroke-opacity="0.3" fill="none"/>
<path d="M300.0 850.0 Q 371.1279526516864 753.9772639202233 300.0 721.9696852269644" stroke-width="1.0" stroke="rgb(255,0,0)" stroke-opacity="0.3" fill="none"/>
<path d="M300.0 650.8419066368602 Q 290.8114864745234 663.2463998962536 300.0 667.3812309827181" stroke-width="1.0" stroke="rgb(0,0,255)" stroke-opacity="0.3" fill="none"/>
<path d="M300.0 629.1764433779038 Q 278.77511799732537 657.8300340815144 300.0 667.3812309827181" stroke-width="1.0" stroke="rgb(0,0,255)" stroke-opacity="0.3" fill="none"/>
<path d="M300.0 686.4482562874505 Q 310.59279183596243 672.1479873089012 300.0 667.3812309827181" stroke-width="2.0" stroke="rgb(255,0,0)" stroke-opacity="0.3" fill="none"/>
<path d="M300.0 850.0 Q 401.4548716762677 713.0359232370386 300.0 667.3812309827181" stroke-width="2.0" stroke="rgb(255,0,0)" stroke-opacity="0.3" fill="none"/>
<path d="M300.0 679.4487863540311 Q 352.9969675278255 607.9028801914667 300.0 584.0542448039452" stroke-width="1.0" stroke="rgb(255,0,0)" stroke-opacity="0.3" fill="none"/>
<path d="M300.0 819.3440263310808 Q 430.7165452928532 642.8766901857291 300.0 584.0542448039452" stroke-width="1.0" stroke="rgb(255,0,0)" stroke-opacity="0.3" fill="none"/>
<path d="M300.0 721.9696852269644 Q 376.6196891238996 618.5331049097 300.0 584.0542448039452" stroke-width="1.0" stroke="rgb(255,0,0)" stroke-opacity="0.3" fill="none"/>
<path d="M300.0 789.220019335608 Q 413.9809858509238 635.3456884368609 300.0 584.0542448039452" stroke-width="1.0" stroke="rgb(255,0,0)" stroke-opacity="0.3" fill="none"/>
<path d="M300.0 793.489471350758 Q 416.35290363711823 636.4130514406484 300.0 584.0542448039452" stroke-width="1.0" stroke="rgb(255,0,0)" stroke-opacity="0.3" fill="none"/>
<path d="M300.0 629.1764433779038 Q 325.0678880966437 595.3347944474349 300.0 584.0542448039452" stroke-width="1.0" stroke="rgb(255,0,0)" stroke-opacity="0.3" fill="none"/>
<path d="M300.0 693.077477941425 Q 335.5005747575118 645.151702018784 300.0 629.1764433779038" stroke-width="3.0" stroke="rgb(255,0,0)" stroke-opacity="0.3" fill="none"/>
<path d="M300.0 650.8419066368602 Q 312.03636847719804 634.5928091926429 300.0 629.1764433779038" stroke-width="5.0" stroke="rgb(255,0,0)" stroke-opacity="0.3" fill="none"/>
<path d="M300.0 819.3440263310808 Q 405.64865719620946 676.718339116198 300.0 629.1764433779038" stroke-width="4.0" stroke="rgb(255,0,0)" stroke-opacity="0.3" fill="none"/>
<path d="M300.0 721.9696852269644 Q 351.5518010272559 652.374753840169 300.0 629.1764433779038" stroke-width="1.0" stroke="rgb(255,0,0)" stroke-opacity="0.3" fill="none"/>
<path d="M300.0 793.489471350758 Q 391.28501554047455 670.2547003711173 300.0 629.1764433779038" stroke-width="2.0" stroke="rgb(255,0,0)" stroke-opacity="0.3" fill="none"/>
<path d="M300.0 686.4482562874505 Q 331.81767383863706 643.4943966052904 300.0 629.1764433779038" stroke-width="1.0" stroke="rgb(255,0,0)" stroke-opacity="0.3" fill="none"/>
<path d="M300.0 850.0 Q 422.67975367894235 684.3823325334279 300.0 629.1764433779038" stroke-width="2.0" stroke="rgb(255,0,0)" stroke-opacity="0.3" fill="none"/>
<path d="M300.0 679.4487863540311 Q 427.7966742079818 506.92327617325554 300.0 449.41477277966374" stroke-width="2.0" stroke="rgb(255,0,0)" stroke-opacity="0.3" fill="none"/>
<path d="M300.0 693.077477941425 Q 435.3681695343118 510.330449070104 300.0 449.41477277966374" stroke-width="1.0" stroke="rgb(255,0,0)" stroke-opacity="0.3" fill="none"/>
<path d="M300.0 650.8419066368602 Q 411.9039632539981 499.7715562439629 300.0 449.41477277966374" stroke-width="1.0" stroke="rgb(255,0,0)" stroke-opacity="0.3" fill="none"/>
<path d="M300.0 584.0542448039452 Q 374.79970668015636 483.0746407857341 300.0 449.41477277966374" stroke-width="1.0" stroke="rgb(255,0,0)" stroke-opacity="0.3" fill="none"/>
<path d="M300.0 593.6769632351103 Q 380.14566136413697 485.4803203935254 300.0 449.41477277966374" stroke-width="2.0" stroke="rgb(255,0,0)" stroke-opacity="0.3" fill="none"/>
<path d="M300.0 526.6989057246034 Q 342.93562941385534 468.7358060158987 300.0 449.41477277966374" stroke-width="2.0" stroke="rgb(255,0,0)" stroke-opacity="0.3" fill="none"/>
<path d="M300.0 693.077477941425 Q 355.2225081701748 618.527091911689 300.0 593.6769632351103" stroke-width="1.0" stroke="rgb(255,0,0)" stroke-opacity="0.3" fill="none"/>
<path d="M300.0 650.8419066368602 Q 331.75830188986106 607.9681990855478 300.0 593.6769632351103" stroke-width="1.0" stroke="rgb(255,0,0)" stroke-opacity="0.3" fill="none"/>
<path d="M300.0 819.3440263310808 Q 425.37059060887253 650.093729009103 300.0 593.6769632351103" stroke-width="3.0" stroke="rgb(255,0,0)" stroke-opacity="0.3" fill="none"/>
<path d="M300.0 667.3812309827181 Q 340.94681541533765 612.1030301720123 300.0 593.6769632351103" stroke-width="3.0" stroke="rgb(255,0,0)" stroke-opacity="0.3" fill="none"/>
<path d="M300.0 793.489471350758 Q 411.00694895313757 643.6300902640222 300.0 593.6769632351103" stroke-width="2.0" stroke="rgb(255,0,0)" stroke-opacity="0.3" fill="none"/>
<path d="M300.0 686.4482562874505 Q 351.5396072513001 616.8697864981954 300.0 593.6769632351103" stroke-width="1.0" stroke="rgb(255,0,0)" stroke-opacity="0.3" fill="none"/>
<path d="M300.0 850.0 Q 442.40168709160537 657.7577224263327 300.0 593.6769632351103" stroke-width="2.0" stroke="rgb(255,0,0)" stroke-opacity="0.3" fill="none"/>
<path d="M300.0 693.077477941425 Q 392.43254012045645 568.2935487788088 300.0 526.6989057246034" stroke-width="2.0" stroke="rgb(255,0,0)" stroke-opacity="0.3" fill="none"/>
<path d="M300.0 819.3440263310808 Q 462.5806225591541 599.8601858762228 300.0 526.6989057246034" stroke-width="3.0" stroke="rgb(255,0,0)" stroke-opacity="0.3" fill="none"/>
<path d="M300.0 721.9696852269644 Q 408.48376639020057 575.5166006001937 300.0 526.6989057246034" stroke-width="2.0" stroke="rgb(255,0,0)" stroke-opacity="0.3" fill="none"/>
<path d="M300.0 667.3812309827181 Q 378.1568473656193 561.8694870391321 300.0 526.6989057246034" stroke-width="1.0" stroke="rgb(255,0,0)" stroke-opacity="0.3" fill="none"/>
<path d="M300.0 584.0542448039452 Q 331.86407726630097 541.0377404944388 300.0 526.6989057246034" stroke-width="1.0" stroke="rgb(255,0,0)" stroke-opacity="0.3" fill="none"/>
<path d="M300.0 789.220019335608 Q 445.84506311722475 592.3291841273546 300.0 526.6989057246034" stroke-width="2.0" stroke="rgb(255,0,0)" stroke-opacity="0.3" fill="none"/>
<path d="M300.0 793.489471350758 Q 448.2169809034192 593.396547131142 300.0 526.6989057246034" stroke-width="3.0" stroke="rgb(255,0,0)" stroke-opacity="0.3" fill="none"/>
<path d="M300.0 629.1764433779038 Q 356.93196536294465 552.3182901379284 300.0 526.6989057246034" stroke-width="3.0" stroke="rgb(255,0,0)" stroke-opacity="0.3" fill="none"/>
<path d="M300.0 593.6769632351103 Q 337.21003195028163 543.4434201022301 300.0 526.6989057246034" stroke-width="1.0" stroke="rgb(255,0,0)" stroke-opacity="0.3" fill="none"/>
<path d="M300.0 523.0291244417509 Q 297.96123262063753 525.7814604038903 300.0 526.6989057246034" stroke-width="2.0" stroke="rgb(0,0,255)" stroke-opacity="0.3" fill="none"/>
<path d="M300.0 850.0 Q 479.611719041887 607.5241792934526 300.0 526.6989057246034" stroke-width="2.0" stroke="rgb(255,0,0)" stroke-opacity="0.3" fill="none"/>
<path d="M300.0 679.4487863540311 Q 385.45071828738764 564.0903166660578 300.0 525.6374934367333" stroke-width="1.0" stroke="rgb(255,0,0)" stroke-opacity="0.3" fill="none"/>
<path d="M300.0 819.3440263310808 Q 463.1702960524153 599.0641266603202 300.0 525.6374934367333" stroke-width="4.0" stroke="rgb(255,0,0)" stroke-opacity="0.3" fill="none"/>
<path d="M300.0 721.9696852269644 Q 409.07343988346173 574.7205413842911 300.0 525.6374934367333" stroke-width="2.0" stroke="rgb(255,0,0)" stroke-opacity="0.3" fill="none"/>
<path d="M300.0 667.3812309827181 Q 378.74652085888044 561.0734278232295 300.0 525.6374934367333" stroke-width="1.0" stroke="rgb(255,0,0)" stroke-opacity="0.3" fill="none"/>
<path d="M300.0 789.220019335608 Q 446.43473661048597 591.533124911452 300.0 525.6374934367333" stroke-width="1.0" stroke="rgb(255,0,0)" stroke-opacity="0.3" fill="none"/>
<path d="M300.0 793.489471350758 Q 448.8066543966804 592.6004879152395 300.0 525.6374934367333" stroke-width="3.0" stroke="rgb(255,0,0)" stroke-opacity="0.3" fill="none"/>
<path d="M300.0 629.1764433779038 Q 357.5216388562058 551.522230922026 300.0 525.6374934367333" stroke-width="1.0" stroke="rgb(255,0,0)" stroke-opacity="0.3" fill="none"/>
<path d="M300.0 593.6769632351103 Q 337.7997054435428 542.6473608863275 300.0 525.6374934367333" stroke-width="2.0" stroke="rgb(255,0,0)" stroke-opacity="0.3" fill="none"/>
<path d="M300.0 523.0291244417509 Q 298.5509061138987 524.9854011879877 300.0 525.6374934367333" stroke-width="1.0" stroke="rgb(0,0,255)" stroke-opacity="0.3" fill="none"/>
<path d="M300.0 686.4482562874505 Q 389.3393126948429 565.8401841494126 300.0 525.6374934367333" stroke-width="2.0" stroke="rgb(255,0,0)" stroke-opacity="0.3" fill="none"/>
<path d="M300.0 679.4487863540311 Q 386.89981217348895 562.134039919821 300.0 523.0291244417509" stroke-width="2.0" stroke="rgb(255,0,0)" stroke-opacity="0.3" fill="none"/>
<path d="M300.0 693.077477941425 Q 394.4713074998189 565.5412128166695 300.0 523.0291244417509" stroke-width="1.0" stroke="rgb(255,0,0)" stroke-opacity="0.3" fill="none"/>
<path d="M300.0 650.8419066368602 Q 371.00710121950516 554.9823199905283 300.0 523.0291244417509" stroke-width="1.0" stroke="rgb(255,0,0)" stroke-opacity="0.3" fill="none"/>
<path d="M300.0 819.3440263310808 Q 464.61938993851663 597.1078499140834 300.0 523.0291244417509" stroke-width="1.0" stroke="rgb(255,0,0)" stroke-opacity="0.3" fill="none"/>
<path d="M300.0 721.9696852269644 Q 410.52253376956304 572.7642646380543 300.0 523.0291244417509" stroke-width="1.0" stroke="rgb(255,0,0)" stroke-opacity="0.3" fill="none"/>
<path d="M300.0 629.1764433779038 Q 358.9707327423071 549.5659541757891 300.0 523.0291244417509" stroke-width="4.0" stroke="rgb(255,0,0)" stroke-opacity="0.3" fill="none"/>
<path d="M300.0 525.6374934367333 Q 301.4490938861013 523.6812166904965 300.0 523.0291244417509" stroke-width="1.0" stroke="rgb(255,0,0)" stroke-opacity="0.3" fill="none"/>
<path d="M300.0 686.4482562874505 Q 390.7884065809442 563.8839074031758 300.0 523.0291244417509" stroke-width="1.0" stroke="rgb(255,0,0)" stroke-opacity="0.3" fill="none"/>
<path d="M300.0 679.4487863540311 Q 296.11140559254477 684.6983888040957 300.0 686.4482562874505" stroke-width="2.0" stroke="rgb(0,0,255)" stroke-opacity="0.3" fill="none"/>
<path d="M300.0 819.3440263310808 Q 373.83098335757245 719.6721987983581 300.0 686.4482562874505" stroke-width="1.0" stroke="rgb(255,0,0)" stroke-opacity="0.3" fill="none"/>
<path d="M300.0 721.9696852269644 Q 319.73412718861886 695.328613522329 300.0 686.4482562874505" stroke-width="1.0" stroke="rgb(255,0,0)" stroke-opacity="0.3" fill="none"/>
<path d="M300.0 850.0 Q 390.8620798403053 727.3361922155879 300.0 686.4482562874505" stroke-width="1.0" stroke="rgb(255,0,0)" stroke-opacity="0.3" fill="none"/>
<path d="M300.0 693.077477941425 Q 507.97373201918026 412.3129397155316 300.0 318.7247603069005" stroke-width="3.0" stroke="rgb(255,0,0)" stroke-opacity="0.3" fill="none"/>
<path d="M300.0 650.8419066368602 Q 484.5095257388665 401.75404688939045 300.0 318.7247603069005" stroke-width="1.0" stroke="rgb(255,0,0)" stroke-opacity="0.3" fill="none"/>
<path d="M300.0 667.3812309827181 Q 493.6980392643431 405.88887797585494 300.0 318.7247603069005" stroke-width="1.0" stroke="rgb(255,0,0)" stroke-opacity="0.3" fill="none"/>
<path d="M300.0 449.41477277966374 Q 372.60556248486847 351.3972634250913 300.0 318.7247603069005" stroke-width="5.0" stroke="rgb(255,0,0)" stroke-opacity="0.3" fill="none"/>
<path d="M300.0 526.6989057246034 Q 415.5411918987238 370.71829666132624 300.0 318.7247603069005" stroke-width="3.0" stroke="rgb(255,0,0)" stroke-opacity="0.3" fill="none"/>
<path d="M300.0 686.4482562874505 Q 504.2908311003055 410.65563430203804 300.0 318.7247603069005" stroke-width="2.0" stroke="rgb(255,0,0)" stroke-opacity="0.3" fill="none"/>
<path d="M300.0 436.85606679540905 Q 365.628503604727 348.25758692902764 300.0 318.7247603069005" stroke-width="5.0" stroke="rgb(255,0,0)" stroke-opacity="0.3" fill="none"/>
<path d="M300.0 679.4487863540311 Q 434.7737330881233 497.5042466850646 300.0 436.85606679540905" stroke-width="2.0" stroke="rgb(255,0,0)" stroke-opacity="0.3" fill="none"/>
<path d="M300.0 650.8419066368602 Q 418.8810221341396 490.3525267557718 300.0 436.85606679540905" stroke-width="2.0" stroke="rgb(255,0,0)" stroke-opacity="0.3" fill="none"/>
<path d="M300.0 721.9696852269644 Q 458.39645468419747 508.1344714032979 300.0 436.85606679540905" stroke-width="1.0" stroke="rgb(255,0,0)" stroke-opacity="0.3" fill="none"/>
<path d="M300.0 584.0542448039452 Q 381.7767655602978 473.65561129754303 300.0 436.85606679540905" stroke-width="2.0" stroke="rgb(255,0,0)" stroke-opacity="0.3" fill="none"/>
<path d="M300.0 629.1764433779038 Q 406.8446536569415 484.9361609410327 300.0 436.85606679540905" stroke-width="1.0" stroke="rgb(255,0,0)" stroke-opacity="0.3" fill="none"/>
<path d="M300.0 593.6769632351103 Q 387.12272024427847 476.0612909053343 300.0 436.85606679540905" stroke-width="2.0" stroke="rgb(255,0,0)" stroke-opacity="0.3" fill="none"/>
<path d="M300.0 526.6989057246034 Q 349.91268829399684 459.3167765277076 300.0 436.85606679540905" stroke-width="1.0" stroke="rgb(255,0,0)" stroke-opacity="0.3" fill="none"/>
<path d="M300.0 525.6374934367333 Q 349.3230148007357 459.05142345574006 300.0 436.85606679540905" stroke-width="1.0" stroke="rgb(255,0,0)" stroke-opacity="0.3" fill="none"/>
<path d="M300.0 523.0291244417509 Q 347.87392091463437 458.3993312069945 300.0 436.85606679540905" stroke-width="1.0" stroke="rgb(255,0,0)" stroke-opacity="0.3" fill="none"/>
<path d="M300.0 686.4482562874505 Q 438.66232749557855 499.2541141684194 300.0 436.85606679540905" stroke-width="1.0" stroke="rgb(255,0,0)" stroke-opacity="0.3" fill="none"/>
<path d="M300.0 447.33446273794766 Q 305.8213310791881 439.4756657810437 300.0 436.85606679540905" stroke-width="1.0" stroke="rgb(255,0,0)" stroke-opacity="0.3" fill="none"/>
<path d="M300.0 679.4487863540311 Q 428.9524020089352 505.3630436419685 300.0 447.33446273794766" stroke-width="1.0" stroke="rgb(255,0,0)" stroke-opacity="0.3" fill="none"/>
<path d="M300.0 693.077477941425 Q 436.52389733526513 508.77021653881695 300.0 447.33446273794766" stroke-width="1.0" stroke="rgb(255,0,0)" stroke-opacity="0.3" fill="none"/>
<path d="M300.0 650.8419066368602 Q 413.05969105495143 498.21132371267583 300.0 447.33446273794766" stroke-width="2.0" stroke="rgb(255,0,0)" stroke-opacity="0.3" fill="none"/>
<path d="M300.0 819.3440263310808 Q 506.6719797739629 540.3368536362309 300.0 447.33446273794766" stroke-width="1.0" stroke="rgb(255,0,0)" stroke-opacity="0.3" fill="none"/>
<path d="M300.0 721.9696852269644 Q 452.5751236050093 515.9932683602019 300.0 447.33446273794766" stroke-width="1.0" stroke="rgb(255,0,0)" stroke-opacity="0.3" fill="none"/>
<path d="M300.0 629.1764433779038 Q 401.0233225777534 492.7949578979367 300.0 447.33446273794766" stroke-width="2.0" stroke="rgb(255,0,0)" stroke-opacity="0.3" fill="none"/>
<path d="M300.0 593.6769632351103 Q 381.30138916509037 483.92008786223835 300.0 447.33446273794766" stroke-width="1.0" stroke="rgb(255,0,0)" stroke-opacity="0.3" fill="none"/>
<path d="M300.0 525.6374934367333 Q 343.5016837215476 466.9102204126441 300.0 447.33446273794766" stroke-width="1.0" stroke="rgb(255,0,0)" stroke-opacity="0.3" fill="none"/>
<path d="M300.0 523.0291244417509 Q 342.05258983544627 466.2581281638985 300.0 447.33446273794766" stroke-width="1.0" stroke="rgb(255,0,0)" stroke-opacity="0.3" fill="none"/>
<path d="M300.0 686.4482562874505 Q 432.84099641639045 507.11291112532336 300.0 447.33446273794766" stroke-width="1.0" stroke="rgb(255,0,0)" stroke-opacity="0.3" fill="none"/>
<path d="M300.0 650.8419066368602 Q 533.8010592427001 335.21047665921503 300.0 230.0" stroke-width="1.0" stroke="rgb(255,0,0)" stroke-opacity="0.3" fill="none"/>
<path d="M300.0 449.41477277966374 Q 421.89709598870206 284.85369319491593 300.0 230.0" stroke-width="18.0" stroke="rgb(255,0,0)" stroke-opacity="0.3" fill="none"/>
<path d="M300.0 526.6989057246034 Q 464.83272540255746 304.1747264311508 300.0 230.0" stroke-width="1.0" stroke="rgb(255,0,0)" stroke-opacity="0.3" fill="none"/>
<path d="M300.0 436.85606679540905 Q 414.92003710856056 281.7140166988523 300.0 230.0" stroke-width="18.0" stroke="rgb(255,0,0)" stroke-opacity="0.3" fill="none"/>
<circle class="node" r="3" style="fill: rgb(100,100,100); stroke: rgb(255,255,255); stroke-width:1.5" cx="300.0" cy="679.4487863540311"/>
<circle class="node" r="3" style="fill: rgb(100,100,100); stroke: rgb(255,255,255); stroke-width:1.5" cx="300.0" cy="693.077477941425"/>
<circle class="node" r="3" style="fill: rgb(100,100,100); stroke: rgb(255,255,255); stroke-width:1.5" cx="300.0" cy="650.8419066368602"/>
<circle class="node" r="3" style="fill: rgb(100,100,100); stroke: rgb(255,255,255); stroke-width:1.5" cx="300.0" cy="819.3440263310808"/>
<circle class="node" r="3" style="fill: rgb(100,100,100); stroke: rgb(255,255,255); stroke-width:1.5" cx="300.0" cy="721.9696852269644"/>
<circle class="node" r="3" style="fill: rgb(100,100,100); stroke: rgb(255,255,255); stroke-width:1.5" cx="300.0" cy="667.3812309827181"/>
<circle class="node" r="3" style="fill: rgb(100,100,100); stroke: rgb(255,255,255); stroke-width:1.5" cx="300.0" cy="584.0542448039452"/>
<circle class="node" r="3" style="fill: rgb(100,100,100); stroke: rgb(255,255,255); stroke-width:1.5" cx="300.0" cy="789.220019335608"/>
<circle class="node" r="3" style="fill: rgb(100,100,100); stroke: rgb(255,255,255); stroke-width:1.5" cx="300.0" cy="793.489471350758"/>
<circle class="node" r="3" style="fill: rgb(100,100,100); stroke: rgb(255,255,255); stroke-width:1.5" cx="300.0" cy="629.1764433779038"/>
<circle class="node" r="3" style="fill: rgb(100,100,100); stroke: rgb(255,255,255); stroke-width:1.5" cx="300.0" cy="449.41477277966374"/>
<circle class="node" r="3" style="fill: rgb(100,100,100); stroke: rgb(255,255,255); stroke-width:1.5" cx="300.0" cy="593.6769632351103"/>
<circle class="node" r="3" style="fill: rgb(100,100,100); stroke: rgb(255,255,255); stroke-width:1.5" cx="300.0" cy="526.6989057246034"/>
<circle class="node" r="3" style="fill: rgb(100,100,100); stroke: rgb(255,255,255); stroke-width:1.5" cx="300.0" cy="525.6374934367333"/>
<circle class="node" r="3" style="fill: rgb(100,100,100); stroke: rgb(255,255,255); stroke-width:1.5" cx="300.0" cy="523.0291244417509"/>
<circle class="node" r="3" style="fill: rgb(100,100,100); stroke: rgb(255,255,255); stroke-width:1.5" cx="300.0" cy="686.4482562874505"/>
<circle class="node" r="3" style="fill: rgb(100,100,100); stroke: rgb(255,255,255); stroke-width:1.5" cx="300.0" cy="318.7247603069005"/>
<circle class="node" r="3" style="fill: rgb(100,100,100); stroke: rgb(255,255,255); stroke-width:1.5" cx="300.0" cy="436.85606679540905"/>
<circle class="node" r="3" style="fill: rgb(100,100,100); stroke: rgb(255,255,255); stroke-width:1.5" cx="300.0" cy="850.0"/>
<circle class="node" r="3" style="fill: rgb(100,100,100); stroke: rgb(255,255,255); stroke-width:1.5" cx="300.0" cy="447.33446273794766"/>
<circle class="node" r="3" style="fill: rgb(100,100,100); stroke: rgb(255,255,255); stroke-width:1.5" cx="300.0" cy="230.0"/>
</svg>