<svg width="600" height="1080" id="v1" xmlns="http://www.w3.org/2000/svg" xmlns:xlink="http://www.w3.org/1999/xlink">

        <style>
            .sans { font: 12px sans-serif; }
            .grey { stroke: rgb(150,150,150); stroke-width:0.5;}
        </style>
        <line x1="300.0" y1="172.5" x2="300.0" y2="907.5" stroke-width="0.5" stroke="rgb(150,150,150)" stroke-opacity="1"/>
<path d="M300.0 762.3540512429103 Q 343.02518768640783 704.2700478662597 300.0 684.9087134073761" stroke-width="2.0" stroke="rgb(255,0,0)" stroke-opacity="0.3" fill="none"/>
<path d="M300.0 568.5463535855115 Q 235.35424454340853 655.81812345191 300.0 684.9087134073761" stroke-width="1.0" stroke="rgb(0,0,255)" stroke-opacity="0.3" fill="none"/>
<path d="M300.0 629.9524348163912 Q 269.4687341161195 671.1696437596299 300.0 684.9087134073761" stroke-width="1.0" stroke="rgb(0,0,255)" stroke-opacity="0.3" fill="none"/>
<path d="M300.0 850.0 Q 348.69219375393874 784.2655384321827 300.0 762.3540512429103" stroke-width="1.0" stroke="rgb(255,0,0)" stroke-opacity="0.3" fill="none"/>
<path d="M300.0 626.6553092973417 Q 224.61181003023967 728.4293657565181 300.0 762.3540512429103" stroke-width="2.0" stroke="rgb(0,0,255)" stroke-opacity="0.3" fill="none"/>
<path d="M300.0 540.2018621271695 Q 176.58211715792183 706.816003963975 300.0 762.3540512429103" stroke-width="1.0" stroke="rgb(0,0,255)" stroke-opacity="0.3" fill="none"/>
<path d="M300.0 719.1998932889011 Q 276.02546780332824 751.5655117544079 300.0 762.3540512429103" stroke-width="1.0" stroke="rgb(0,0,255)" stroke-opacity="0.3" fill="none"/>
<path d="M300.0 806.3538101200293 Q 324.44431048728836 773.35399096219 300.0 762.3540512429103" stroke-width="1.0" stroke="rgb(255,0,0)" stroke-opacity="0.3" fill="none"/>
<path d="M300.0 667.2665855998968 Q 354.84457334132514 593.2264115891078 300.0 568.5463535855115" stroke-width="7.0" stroke="rgb(255,0,0)" stroke-opacity="0.3" fill="none"/>
<path d="M300.0 806.3538101200293 Q 432.1152536302876 627.9982177191409 300.0 568.5463535855115" stroke-width="4.0" stroke="rgb(255,0,0)" stroke-opacity="0.3" fill="none"/>
<path d="M300.0 762.3540512429103 Q 373.55645357028834 663.052838923021 300.0 629.9524348163912" stroke-width="1.0" stroke="rgb(255,0,0)" stroke-opacity="0.3" fill="none"/>
<path d="M300.0 667.2665855998968 Q 320.7300837686142 639.2809725122676 300.0 629.9524348163912" stroke-width="2.0" stroke="rgb(255,0,0)" stroke-opacity="0.3" fill="none"/>
<path d="M300.0 806.3538101200293 Q 398.0007640575767 674.0527786423007 300.0 629.9524348163912" stroke-width="3.0" stroke="rgb(255,0,0)" stroke-opacity="0.3" fill="none"/>
<path d="M300.0 762.3540512429103 Q 251.30780624606126 828.0885128107276 300.0 850.0" stroke-width="1.0" stroke="rgb(0,0,255)" stroke-opacity="0.3" fill="none"/>
<path d="M300.0 762.3540512429103 Q 527.994128019732 454.56197841627204 300.0 351.96462080739263" stroke-width="3.0" stroke="rgb(255,0,0)" stroke-opacity="0.3" fill="none"/>
<path d="M300.0 568.5463535855115 Q 420.3231848767327 406.1100540019223 300.0 351.96462080739263" stroke-width="3.0" stroke="rgb(255,0,0)" stroke-opacity="0.3" fill="none"/>
<path d="M300.0 629.9524348163912 Q 454.43767444944365 421.4615743096423 300.0 351.96462080739263" stroke-width="1.0" stroke="rgb(255,0,0)" stroke-opacity="0.3" fill="none"/>
<path d="M300.0 740.7004893402825 Q 515.964371407161 449.1485879406151 300.0 351.96462080739263" stroke-width="1.0" stroke="rgb(255,0,0)" stroke-opacity="0.3" fill="none"/>
<path d="M300.0 655.4071042012752 Q 468.5791574410458 427.82524165586324 300.0 351.96462080739263" stroke-width="4.0" stroke="rgb(255,0,0)" stroke-opacity="0.3" fill="none"/>
<path d="M300.0 584.0980232489017 Q 428.9630013563939 409.99797141776986 300.0 351.96462080739263" stroke-width="3.0" stroke="rgb(255,0,0)" stroke-opacity="0.3" fill="none"/>
<path d="M300.0 579.801806036619 Q 426.5762140162369 408.9239171146992 300.0 351.96462080739263" stroke-width="4.0" stroke="rgb(255,0,0)" stroke-opacity="0.3" fill="none"/>
<path d="M300.0 626.6553092973417 Q 452.60593804997166 420.6372929298799 300.0 351.96462080739263" stroke-width="3.0" stroke="rgb(255,0,0)" stroke-opacity="0.3" fill="none"/>
<path d="M300.0 383.49012187396704 Q 317.514167259208 359.8459960740362 300.0 351.96462080739263" stroke-width="1.0" stroke="rgb(255,0,0)" stroke-opacity="0.3" fill="none"/>
<path d="M300.0 667.2665855998968 Q 475.1677582180579 430.7901120055186 300.0 351.96462080739263" stroke-width="2.0" stroke="rgb(255,0,0)" stroke-opacity="0.3" fill="none"/>
<path d="M300.0 540.2018621271695 Q 404.57624517765385 399.02393113733683 300.0 351.96462080739263" stroke-width="7.0" stroke="rgb(255,0,0)" stroke-opacity="0.3" fill="none"/>
<path d="M300.0 585.6327173247308 Q 429.815609176299 410.3816449367272 300.0 351.96462080739263" stroke-width="3.0" stroke="rgb(255,0,0)" stroke-opacity="0.3" fill="none"/>
<path d="M300.0 762.3540512429103 Q 312.02975661257096 746.1138798159394 300.0 740.7004893402825" stroke-width="2.0" stroke="rgb(255,0,0)" stroke-opacity="0.3" fill="none"/>
<path d="M300.0 806.3538101200293 Q 336.4740670998593 757.1138195352191 300.0 740.7004893402825" stroke-width="1.0" stroke="rgb(255,0,0)" stroke-opacity="0.3" fill="none"/>
<path d="M300.0 684.9087134073761 Q 316.38978289227833 662.7825065028004 300.0 655.4071042012752" stroke-width="1.0" stroke="rgb(255,0,0)" stroke-opacity="0.3" fill="none"/>
<path d="M300.0 762.3540512429103 Q 359.41497057868617 682.143840961684 300.0 655.4071042012752" stroke-width="1.0" stroke="rgb(255,0,0)" stroke-opacity="0.3" fill="none"/>
<path d="M300.0 667.2665855998968 Q 306.588600777012 658.3719745509305 300.0 655.4071042012752" stroke-width="1.0" stroke="rgb(255,0,0)" stroke-opacity="0.3" fill="none"/>
<path d="M300.0 806.3538101200293 Q 383.8592810659745 693.1437806809637 300.0 655.4071042012752" stroke-width="3.0" stroke="rgb(255,0,0)" stroke-opacity="0.3" fill="none"/>
<path d="M300.0 762.3540512429103 Q 399.0311266633381 628.6620302474038 300.0 584.0980232489017" stroke-width="3.0" stroke="rgb(255,0,0)" stroke-opacity="0.3" fill="none"/>
<path d="M300.0 655.4071042012752 Q 339.61615608465195 601.9252934869951 300.0 584.0980232489017" stroke-width="2.0" stroke="rgb(255,0,0)" stroke-opacity="0.3" fill="none"/>
<path d="M300.0 579.801806036619 Q 297.613212659843 583.023968945831 300.0 584.0980232489017" stroke-width="2.0" stroke="rgb(0,0,255)" stroke-opacity="0.3" fill="none"/>
<path d="M300.0 850.0 Q 450.11010775743387 647.3513545274643 300.0 579.801806036619" stroke-width="1.0" stroke="rgb(255,0,0)" stroke-opacity="0.3" fill="none"/>
<path d="M300.0 740.7004893402825 Q 389.38815739092416 620.026476862535 300.0 579.801806036619" stroke-width="2.0" stroke="rgb(255,0,0)" stroke-opacity="0.3" fill="none"/>
<path d="M300.0 584.0980232489017 Q 302.386787340157 580.8758603396898 300.0 579.801806036619" stroke-width="1.0" stroke="rgb(255,0,0)" stroke-opacity="0.3" fill="none"/>
<path d="M300.0 540.2018621271695 Q 278.0000311614169 569.9018200592567 300.0 579.801806036619" stroke-width="1.0" stroke="rgb(0,0,255)" stroke-opacity="0.3" fill="none"/>
<path d="M300.0 719.1998932889011 Q 377.44338180682337 614.6513278496896 300.0 579.801806036619" stroke-width="3.0" stroke="rgb(255,0,0)" stroke-opacity="0.3" fill="none"/>
<path d="M300.0 806.3538101200293 Q 425.86222449078343 636.4398070574716 300.0 579.801806036619" stroke-width="1.0" stroke="rgb(255,0,0)" stroke-opacity="0.3" fill="none"/>
<path d="M300.0 740.7004893402825 Q 363.35843335718937 655.1666043080768 300.0 626.6553092973417" stroke-width="2.0" stroke="rgb(255,0,0)" stroke-opacity="0.3" fill="none"/>
<path d="M300.0 667.2665855998968 Q 322.5618201680862 636.8081283729804 300.0 626.6553092973417" stroke-width="1.0" stroke="rgb(255,0,0)" stroke-opacity="0.3" fill="none"/>
<path d="M300.0 540.2018621271695 Q 251.97030712768216 605.0419475047986 300.0 626.6553092973417" stroke-width="1.0" stroke="rgb(0,0,255)" stroke-opacity="0.3" fill="none"/>
<path d="M300.0 684.9087134073761 Q 467.45477307411613 458.84476975731934 300.0 383.49012187396704" stroke-width="1.0" stroke="rgb(255,0,0)" stroke-opacity="0.3" fill="none"/>
<path d="M300.0 762.3540512429103 Q 510.479960760524 478.2061042162029 300.0 383.49012187396704" stroke-width="13.0" stroke="rgb(255,0,0)" stroke-opacity="0.3" fill="none"/>
<path d="M300.0 568.5463535855115 Q 402.80901761752466 429.7541798018532 300.0 383.49012187396704" stroke-width="1.0" stroke="rgb(255,0,0)" stroke-opacity="0.3" fill="none"/>
<path d="M300.0 629.9524348163912 Q 436.9235071902357 445.10570010957315 300.0 383.49012187396704" stroke-width="1.0" stroke="rgb(255,0,0)" stroke-opacity="0.3" fill="none"/>
<path d="M300.0 850.0 Q 559.1721545144628 500.1175914054753 300.0 383.49012187396704" stroke-width="1.0" stroke="rgb(255,0,0)" stroke-opacity="0.3" fill="none"/>
<path d="M300.0 740.7004893402825 Q 498.45020414795306 472.79271374054593 300.0 383.49012187396704" stroke-width="2.0" stroke="rgb(255,0,0)" stroke-opacity="0.3" fill="none"/>
<path d="M300.0 655.4071042012752 Q 451.06499018183786 451.4693674557941 300.0 383.49012187396704" stroke-width="1.0" stroke="rgb(255,0,0)" stroke-opacity="0.3" fill="none"/>
<path d="M300.0 584.0980232489017 Q 411.4488340971859 433.6420972177007 300.0 383.49012187396704" stroke-width="4.0" stroke="rgb(255,0,0)" stroke-opacity="0.3" fill="none"/>
<path d="M300.0 540.2018621271695 Q 387.0620779184458 422.6680569372677 300.0 383.49012187396704" stroke-width="7.0" stroke="rgb(255,0,0)" stroke-opacity="0.3" fill="none"/>
<path d="M300.0 585.6327173247308 Q 412.301441917091 434.02577073665805 300.0 383.49012187396704" stroke-width="2.0" stroke="rgb(255,0,0)" stroke-opacity="0.3" fill="none"/>
<path d="M300.0 358.67090785630324 Q 286.21154776796453 377.28531836955113 300.0 383.49012187396704" stroke-width="2.0" stroke="rgb(0,0,255)" stroke-opacity="0.3" fill="none"/>
<path d="M300.0 719.1998932889011 Q 486.5054285638522 467.41756472770055 300.0 383.49012187396704" stroke-width="3.0" stroke="rgb(255,0,0)" stroke-opacity="0.3" fill="none"/>
<path d="M300.0 806.3538101200293 Q 534.9242712478124 489.2060439354826 300.0 383.49012187396704" stroke-width="1.0" stroke="rgb(255,0,0)" stroke-opacity="0.3" fill="none"/>
<path d="M300.0 684.9087134073761 Q 309.80118211526633 671.6771175517666 300.0 667.2665855998968" stroke-width="2.0" stroke="rgb(255,0,0)" stroke-opacity="0.3" fill="none"/>
<path d="M300.0 762.3540512429103 Q 352.82636980167416 691.0384520106502 300.0 667.2665855998968" stroke-width="5.0" stroke="rgb(255,0,0)" stroke-opacity="0.3" fill="none"/>
<path d="M300.0 850.0 Q 401.5185635556129 712.9499391999226 300.0 667.2665855998968" stroke-width="3.0" stroke="rgb(255,0,0)" stroke-opacity="0.3" fill="none"/>
<path d="M300.0 740.7004893402825 Q 340.7966131891032 685.6250615349932 300.0 667.2665855998968" stroke-width="2.0" stroke="rgb(255,0,0)" stroke-opacity="0.3" fill="none"/>
<path d="M300.0 719.1998932889011 Q 328.8518376050024 680.2499125221478 300.0 667.2665855998968" stroke-width="2.0" stroke="rgb(255,0,0)" stroke-opacity="0.3" fill="none"/>
<path d="M300.0 568.5463535855115 Q 315.7469396990789 547.287984991755 300.0 540.2018621271695" stroke-width="2.0" stroke="rgb(255,0,0)" stroke-opacity="0.3" fill="none"/>
<path d="M300.0 629.9524348163912 Q 349.86142927178986 562.639505299475 300.0 540.2018621271695" stroke-width="3.0" stroke="rgb(255,0,0)" stroke-opacity="0.3" fill="none"/>
<path d="M300.0 655.4071042012752 Q 364.00291226339203 569.0031726456959 300.0 540.2018621271695" stroke-width="4.0" stroke="rgb(255,0,0)" stroke-opacity="0.3" fill="none"/>
<path d="M300.0 579.801806036619 Q 321.9999688385831 550.1018481045319 300.0 540.2018621271695" stroke-width="2.0" stroke="rgb(255,0,0)" stroke-opacity="0.3" fill="none"/>
<path d="M300.0 626.6553092973417 Q 348.02969287231787 561.8152239197126 300.0 540.2018621271695" stroke-width="1.0" stroke="rgb(255,0,0)" stroke-opacity="0.3" fill="none"/>
<path d="M300.0 667.2665855998968 Q 370.59151304040404 571.9680429953513 300.0 540.2018621271695" stroke-width="1.0" stroke="rgb(255,0,0)" stroke-opacity="0.3" fill="none"/>
<path d="M300.0 585.6327173247308 Q 325.23936399864516 551.5595759265599 300.0 540.2018621271695" stroke-width="3.0" stroke="rgb(255,0,0)" stroke-opacity="0.3" fill="none"/>
<path d="M300.0 719.1998932889011 Q 399.44335064540644 584.9513699176024 300.0 540.2018621271695" stroke-width="2.0" stroke="rgb(255,0,0)" stroke-opacity="0.3" fill="none"/>
<path d="M300.0 806.3538101200293 Q 447.8621933293665 606.7398491253845 300.0 540.2018621271695" stroke-width="2.0" stroke="rgb(255,0,0)" stroke-opacity="0.3" fill="none"/>
<path d="M300.0 762.3540512429103 Q 398.17851884343304 629.8130508042757 300.0 585.6327173247308" stroke-width="2.0" stroke="rgb(255,0,0)" stroke-opacity="0.3" fill="none"/>
<path d="M300.0 568.5463535855115 Q 290.5075757004337 581.361126389926 300.0 585.6327173247308" stroke-width="1.0" stroke="rgb(0,0,255)" stroke-opacity="0.3" fill="none"/>
<path d="M300.0 850.0 Q 446.8707125973717 651.7245379935481 300.0 585.6327173247308" stroke-width="2.0" stroke="rgb(255,0,0)" stroke-opacity="0.3" fill="none"/>
<path d="M300.0 584.0980232489017 Q 299.1473921800949 585.2490438057735 300.0 585.6327173247308" stroke-width="1.0" stroke="rgb(0,0,255)" stroke-opacity="0.3" fill="none"/>
<path d="M300.0 667.2665855998968 Q 345.3521490417588 606.0411843935223 300.0 585.6327173247308" stroke-width="2.0" stroke="rgb(255,0,0)" stroke-opacity="0.3" fill="none"/>
<path d="M300.0 684.9087134073761 Q 481.2432253061516 440.23035924407145 300.0 358.67090785630324" stroke-width="1.0" stroke="rgb(255,0,0)" stroke-opacity="0.3" fill="none"/>
<path d="M300.0 762.3540512429103 Q 524.2684129925594 459.591693702955 300.0 358.67090785630324" stroke-width="6.0" stroke="rgb(255,0,0)" stroke-opacity="0.3" fill="none"/>
<path d="M300.0 568.5463535855115 Q 416.5974698495601 411.1397692886053 300.0 358.67090785630324" stroke-width="1.0" stroke="rgb(255,0,0)" stroke-opacity="0.3" fill="none"/>
<path d="M300.0 629.9524348163912 Q 450.7119594222711 426.49128959632526 300.0 358.67090785630324" stroke-width="4.0" stroke="rgb(255,0,0)" stroke-opacity="0.3" fill="none"/>
<path d="M300.0 850.0 Q 572.9606067464981 481.5031808922274 300.0 358.67090785630324" stroke-width="1.0" stroke="rgb(255,0,0)" stroke-opacity="0.3" fill="none"/>
<path d="M300.0 351.96462080739263 Q 296.27428497282745 356.9943360940756 300.0 358.67090785630324" stroke-width="1.0" stroke="rgb(0,0,255)" stroke-opacity="0.3" fill="none"/>
<path d="M300.0 740.7004893402825 Q 512.2386563799885 454.17830322729804 300.0 358.67090785630324" stroke-width="1.0" stroke="rgb(255,0,0)" stroke-opacity="0.3" fill="none"/>
<path d="M300.0 655.4071042012752 Q 464.85344241387327 432.8549569425462 300.0 358.67090785630324" stroke-width="2.0" stroke="rgb(255,0,0)" stroke-opacity="0.3" fill="none"/>
<path d="M300.0 584.0980232489017 Q 425.2372863292213 415.02768670445283 300.0 358.67090785630324" stroke-width="4.0" stroke="rgb(255,0,0)" stroke-opacity="0.3" fill="none"/>
<path d="M300.0 579.801806036619 Q 422.85049898906436 413.95363240138215 300.0 358.67090785630324" stroke-width="1.0" stroke="rgb(255,0,0)" stroke-opacity="0.3" fill="none"/>
<path d="M300.0 626.6553092973417 Q 448.8802230227991 425.66700821656286 300.0 358.67090785630324" stroke-width="2.0" stroke="rgb(255,0,0)" stroke-opacity="0.3" fill="none"/>
<path d="M300.0 383.49012187396704 Q 313.78845223203547 364.87571136071915 300.0 358.67090785630324" stroke-width="2.0" stroke="rgb(255,0,0)" stroke-opacity="0.3" fill="none"/>
<path d="M300.0 667.2665855998968 Q 471.4420431908853 435.8198272922016 300.0 358.67090785630324" stroke-width="2.0" stroke="rgb(255,0,0)" stroke-opacity="0.3" fill="none"/>
<path d="M300.0 540.2018621271695 Q 400.8505301504813 404.0536464240198 300.0 358.67090785630324" stroke-width="8.0" stroke="rgb(255,0,0)" stroke-opacity="0.3" fill="none"/>
<path d="M300.0 585.6327173247308 Q 426.08989414912645 415.41136022341016 300.0 358.67090785630324" stroke-width="3.0" stroke="rgb(255,0,0)" stroke-opacity="0.3" fill="none"/>
<path d="M300.0 762.3540512429103 Q 323.97453219667176 729.9884327774034 300.0 719.1998932889011" stroke-width="3.0" stroke="rgb(255,0,0)" stroke-opacity="0.3" fill="none"/>
<path d="M300.0 358.67090785630324 Q 99.70611920411233 629.0676469307516 300.0 719.1998932889011" stroke-width="1.0" stroke="rgb(0,0,255)" stroke-opacity="0.3" fill="none"/>
<path d="M300.0 684.9087134073761 Q 232.5305018263038 775.992535941866 300.0 806.3538101200293" stroke-width="1.0" stroke="rgb(0,0,255)" stroke-opacity="0.3" fill="none"/>
<path d="M300.0 762.3540512429103 Q 275.55568951271164 795.3538704007495 300.0 806.3538101200293" stroke-width="1.0" stroke="rgb(0,0,255)" stroke-opacity="0.3" fill="none"/>
<path d="M300.0 850.0 Q 324.24788326665043 817.265357590022 300.0 806.3538101200293" stroke-width="3.0" stroke="rgb(255,0,0)" stroke-opacity="0.3" fill="none"/>
<path d="M300.0 762.3540512429103 Q 595.7522506905057 363.0885128107276 300.0 230.0" stroke-width="1.0" stroke="rgb(255,0,0)" stroke-opacity="0.3" fill="none"/>
<path d="M300.0 568.5463535855115 Q 488.0813075475064 314.6365883963779 300.0 230.0" stroke-width="2.0" stroke="rgb(255,0,0)" stroke-opacity="0.3" fill="none"/>
<path d="M300.0 629.9524348163912 Q 522.1957971202173 329.98810870409784 300.0 230.0" stroke-width="1.0" stroke="rgb(255,0,0)" stroke-opacity="0.3" fill="none"/>
<path d="M300.0 850.0 Q 644.4444444444445 385.0 300.0 230.0" stroke-width="2.0" stroke="rgb(255,0,0)" stroke-opacity="0.3" fill="none"/>
<path d="M300.0 351.96462080739263 Q 367.7581226707737 260.4911552018482 300.0 230.0" stroke-width="7.0" stroke="rgb(255,0,0)" stroke-opacity="0.3" fill="none"/>
<path d="M300.0 584.0980232489017 Q 496.72112402716755 318.5245058122254 300.0 230.0" stroke-width="1.0" stroke="rgb(255,0,0)" stroke-opacity="0.3" fill="none"/>
<path d="M300.0 626.6553092973417 Q 520.3640607207453 329.16382732433544 300.0 230.0" stroke-width="2.0" stroke="rgb(255,0,0)" stroke-opacity="0.3" fill="none"/>
<path d="M300.0 667.2665855998968 Q 542.9258808888316 339.31664639997416 300.0 230.0" stroke-width="1.0" stroke="rgb(255,0,0)" stroke-opacity="0.3" fill="none"/>
<path d="M300.0 540.2018621271695 Q 472.3343678484275 307.5504655317924 300.0 230.0" stroke-width="7.0" stroke="rgb(255,0,0)" stroke-opacity="0.3" fill="none"/>
<path d="M300.0 358.67090785630324 Q 371.4838376979462 262.1677269640758 300.0 230.0" stroke-width="2.0" stroke="rgb(255,0,0)" stroke-opacity="0.3" fill="none"/>
<circle class="node" r="3" style="fill: rgb(100,100,100); stroke: rgb(255,255,255); stroke-width:1.5" cx="300.0" cy="684.9087134073761"/>
<circle class="node" r="3" style="fill: rgb(100,100,100); stroke: rgb(255,255,255); stroke-width:1.5" cx="300.0" cy="762.3540512429103"/>
<circle class="node" r="3" style="fill: rgb(100,100,100); stroke: rgb(255,255,255); stroke-width:1.5" cx="300.0" cy="568.5463535855115"/>
<circle class="node" r="3" style="fill: rgb(100,100,100); stroke: rgb(255,255,255); stroke-width:1.5" cx="300.0" cy="629.9524348163912"/>
<circle class="node" r="3" style="fill: rgb(100,100,100); stroke: rgb(255,255,255); stroke-width:1.5" cx="300.0" cy="850.0"/>
<circle class="node" r="3" style="fill: rgb(100,100,100); stroke: rgb(255,255,255); stroke-width:1.5" cx="300.0" cy="351.96462080739263"/>
<circle class="node" r="3" style="fill: rgb(100,100,100); stroke: rgb(255,255,255); stroke-width:1.5" cx="300.0" cy="740.7004893402825"/>
<circle class="node" r="3" style="fill: rgb(100,100,100); stroke: rgb(255,255,255); stroke-width:1.5" cx="300.0" cy="655.4071042012752"/>
<circle class="node" r="3" style="fill: rgb(100,100,100); stroke: rgb(255,255,255); stroke-width:1.5" cx="300.0" cy="584.0980232489017"/>
<circle class="node" r="3" style="fill: rgb(100,100,100); stroke: rgb(255,255,255); stroke-width:1.5" cx="300.0" cy="579.801806036619"/>
<circle class="node" r="3" style="fill: rgb(100,100,100); stroke: rgb(255,255,255); stroke-width:1.5" cx="300.0" cy="626.6553092973417"/>
<circle class="node" r="3" style="fill: rgb(100,100,100); stroke: rgb(255,255,255); stroke-width:1.5" cx="300.0" cy="383.49012187396704"/>
<circle class="node" r="3" style="fill: rgb(100,100,100); stroke: rgb(255,255,255); stroke-width:1.5" cx="300.0" cy="667.2665855998968"/>
<circle class="node" r="3" style="fill: rgb(100,100,100); stroke: rgb(255,255,255); stroke-width:1.5" cx="300.0" cy="540.2018621271695"/>
<circle class="node" r="3" style="fill: rgb(100,100,100); stroke: rgb(255,255,255); stroke-width:1.5" cx="300.0" cy="585.6327173247308"/>
<circle class="node" r="3" style="fill: rgb(100,100,100); stroke: rgb(255,255,255); stroke-width:1.5" cx="300.0" cy="358.67090785630324"/>
<circle class="node" r="3" style="fill: rgb(100,100,100); stroke: rgb(255,255,255); stroke-width:1.5" cx="300.0" cy="719.1998932889011"/>
<circle class="node" r="3" style="fill: rgb(100,100,100); stroke: rgb(255,255,255); stroke-width:1.5" cx="300.0" cy="806.3538101200293"/>
<circle class="node" r="3" style="fill: rgb(100,100,100); stroke: rgb(255,255,255); stroke-width:1.5" cx="300.0" cy="230.0"/>
</svg>