<svg width="600" height="1080" id="v1" xmlns="http://www.w3.org/2000/svg" xmlns:xlink="http://www.w3.org/1999/xlink">

        <style>
            .sans { font: 12px sans-serif; }
            .grey { stroke: rgb(150,150,150); stroke-width:0.5;}
        </style>
        <line x1="300.0" y1="172.5" x2="300.0" y2="907.5" stroke-width="0.5" stroke="rgb(150,150,150)" stroke-opacity="1"/>
<path d="M300.0 850.0 Q 406.7411717487045 705.8994181392488 300.0 657.8658908523319" stroke-width="1.0" stroke="rgb(255,0,0)" stroke-opacity="0.3" fill="none"/>
<path d="M300.0 698.7312227109442 Q 322.7029621436735 668.0822238169849 300.0 657.8658908523319" stroke-width="1.0" stroke="rgb(255,0,0)" stroke-opacity="0.3" fill="none"/>
<path d="M300.0 749.432920618758 Q 350.87057209245893 680.7576482939384 300.0 657.8658908523319" stroke-width="1.0" stroke="rgb(255,0,0)" stroke-opacity="0.3" fill="none"/>
<path d="M300.0 474.1219882741568 Q 197.9200541232361 611.9299152077881 300.0 657.8658908523319" stroke-width="1.0" stroke="rgb(0,0,255)" stroke-opacity="0.3" fill="none"/>
<path d="M300.0 337.3484880304642 Q 15.193604461368977 721.837122007616 300.0 850.0" stroke-width="1.0" stroke="rgb(0,0,255)" stroke-opacity="0.3" fill="none"/>
<path d="M300.0 850.0 Q 384.038209605031 736.5484170332081 300.0 698.7312227109442" stroke-width="1.0" stroke="rgb(255,0,0)" stroke-opacity="0.3" fill="none"/>
<path d="M300.0 816.7377401107966 Q 365.55917633325134 728.2328520609072 300.0 698.7312227109442" stroke-width="3.0" stroke="rgb(255,0,0)" stroke-opacity="0.3" fill="none"/>
<path d="M300.0 586.4751981103925 Q 237.63554188858242 670.6672165608063 300.0 698.7312227109442" stroke-width="1.0" stroke="rgb(0,0,255)" stroke-opacity="0.3" fill="none"/>
<path d="M300.0 837.8009562121492 Q 377.260963056225 733.4986560862454 300.0 698.7312227109442" stroke-width="2.0" stroke="rgb(255,0,0)" stroke-opacity="0.3" fill="none"/>
<path d="M300.0 657.8658908523319 Q 402.0799458767639 520.0579639187006 300.0 474.1219882741568" stroke-width="1.0" stroke="rgb(255,0,0)" stroke-opacity="0.3" fill="none"/>
<path d="M300.0 850.0 Q 508.82111762546845 568.0914912056176 300.0 474.1219882741568" stroke-width="1.0" stroke="rgb(255,0,0)" stroke-opacity="0.3" fill="none"/>
<path d="M300.0 698.7312227109442 Q 424.7829080204374 530.2742968833536 300.0 474.1219882741568" stroke-width="7.0" stroke="rgb(255,0,0)" stroke-opacity="0.3" fill="none"/>
<path d="M300.0 749.432920618758 Q 452.95051796922286 542.9497213603071 300.0 474.1219882741568" stroke-width="6.0" stroke="rgb(255,0,0)" stroke-opacity="0.3" fill="none"/>
<path d="M300.0 816.7377401107966 Q 490.34208435368873 559.7759262333168 300.0 474.1219882741568" stroke-width="1.0" stroke="rgb(255,0,0)" stroke-opacity="0.3" fill="none"/>
<path d="M300.0 661.7900828690865 Q 404.2600525527387 521.0390119228892 300.0 474.1219882741568" stroke-width="9.0" stroke="rgb(255,0,0)" stroke-opacity="0.3" fill="none"/>
<path d="M300.0 718.2928940703083 Q 435.65050322008415 535.1647147231947 300.0 474.1219882741568" stroke-width="3.0" stroke="rgb(255,0,0)" stroke-opacity="0.3" fill="none"/>
<path d="M300.0 668.6066173323304 Q 408.0470161434298 522.7431455387002 300.0 474.1219882741568" stroke-width="8.0" stroke="rgb(255,0,0)" stroke-opacity="0.3" fill="none"/>
<path d="M300.0 586.4751981103925 Q 362.41844990901984 502.21029073321574 300.0 474.1219882741568" stroke-width="2.0" stroke="rgb(255,0,0)" stroke-opacity="0.3" fill="none"/>
<path d="M300.0 611.850864281849 Q 376.51604222649564 508.55420727607986 300.0 474.1219882741568" stroke-width="8.0" stroke="rgb(255,0,0)" stroke-opacity="0.3" fill="none"/>
<path d="M300.0 593.7182705018297 Q 366.44237901537383 504.02105883107504 300.0 474.1219882741568" stroke-width="1.0" stroke="rgb(255,0,0)" stroke-opacity="0.3" fill="none"/>
<path d="M300.0 837.8009562121492 Q 502.0438710766624 565.041730258655 300.0 474.1219882741568" stroke-width="1.0" stroke="rgb(255,0,0)" stroke-opacity="0.3" fill="none"/>
<path d="M300.0 850.0 Q 342.02174237266775 793.2706477968985 300.0 774.3608637291981" stroke-width="2.0" stroke="rgb(255,0,0)" stroke-opacity="0.3" fill="none"/>
<path d="M300.0 698.7312227109442 Q 257.98353276763675 755.4534534746346 300.0 774.3608637291981" stroke-width="1.0" stroke="rgb(0,0,255)" stroke-opacity="0.3" fill="none"/>
<path d="M300.0 816.7377401107966 Q 323.5427091008881 784.9550828245976 300.0 774.3608637291981" stroke-width="1.0" stroke="rgb(255,0,0)" stroke-opacity="0.3" fill="none"/>
<path d="M300.0 850.0 Q 318.47903327177966 825.0533050830975 300.0 816.7377401107966" stroke-width="5.0" stroke="rgb(255,0,0)" stroke-opacity="0.3" fill="none"/>
<path d="M300.0 850.0 Q 586.8739402302051 462.7201806892232 300.0 333.6269075856309" stroke-width="2.0" stroke="rgb(255,0,0)" stroke-opacity="0.3" fill="none"/>
<path d="M300.0 474.1219882741568 Q 378.05282260473666 368.75067775776233 300.0 333.6269075856309" stroke-width="6.0" stroke="rgb(255,0,0)" stroke-opacity="0.3" fill="none"/>
<path d="M300.0 774.3608637291981 Q 544.8521978575372 443.81039662152267 300.0 333.6269075856309" stroke-width="1.0" stroke="rgb(255,0,0)" stroke-opacity="0.3" fill="none"/>
<path d="M300.0 661.7900828690865 Q 482.31287515747533 415.66770140649476 300.0 333.6269075856309" stroke-width="2.0" stroke="rgb(255,0,0)" stroke-opacity="0.3" fill="none"/>
<path d="M300.0 564.7791982584752 Q 428.4179392626913 391.4149802538419 300.0 333.6269075856309" stroke-width="3.0" stroke="rgb(255,0,0)" stroke-opacity="0.3" fill="none"/>
<path d="M300.0 718.2928940703083 Q 513.7033258248208 429.79340420680023 300.0 333.6269075856309" stroke-width="1.0" stroke="rgb(255,0,0)" stroke-opacity="0.3" fill="none"/>
<path d="M300.0 668.6066173323304 Q 486.0998387481664 417.37183502230573 300.0 333.6269075856309" stroke-width="7.0" stroke="rgb(255,0,0)" stroke-opacity="0.3" fill="none"/>
<path d="M300.0 414.92046585905 Q 345.1630879296773 353.9502971539857 300.0 333.6269075856309" stroke-width="3.0" stroke="rgb(255,0,0)" stroke-opacity="0.3" fill="none"/>
<path d="M300.0 586.4751981103925 Q 440.4712725137565 396.83898021682126 300.0 333.6269075856309" stroke-width="5.0" stroke="rgb(255,0,0)" stroke-opacity="0.3" fill="none"/>
<path d="M300.0 611.850864281849 Q 454.5688648312323 403.1828967596854 300.0 333.6269075856309" stroke-width="2.0" stroke="rgb(255,0,0)" stroke-opacity="0.3" fill="none"/>
<path d="M300.0 850.0 Q 404.5610650727297 708.842562151815 300.0 661.7900828690865" stroke-width="1.0" stroke="rgb(255,0,0)" stroke-opacity="0.3" fill="none"/>
<path d="M300.0 816.7377401107966 Q 386.08203180095006 700.5269971795141 300.0 661.7900828690865" stroke-width="1.0" stroke="rgb(255,0,0)" stroke-opacity="0.3" fill="none"/>
<path d="M300.0 718.2928940703083 Q 331.3904506673454 675.915785669392 300.0 661.7900828690865" stroke-width="2.0" stroke="rgb(255,0,0)" stroke-opacity="0.3" fill="none"/>
<path d="M300.0 593.7182705018297 Q 262.1823264626351 644.7721297772723 300.0 661.7900828690865" stroke-width="1.0" stroke="rgb(0,0,255)" stroke-opacity="0.3" fill="none"/>
<path d="M300.0 850.0 Q 458.4560009675138 636.0843986938564 300.0 564.7791982584752" stroke-width="3.0" stroke="rgb(255,0,0)" stroke-opacity="0.3" fill="none"/>
<path d="M300.0 749.432920618758 Q 402.58540131126824 610.9426288485458 300.0 564.7791982584752" stroke-width="3.0" stroke="rgb(255,0,0)" stroke-opacity="0.3" fill="none"/>
<path d="M300.0 661.7900828690865 Q 353.8949358947841 589.031919411128 300.0 564.7791982584752" stroke-width="1.0" stroke="rgb(255,0,0)" stroke-opacity="0.3" fill="none"/>
<path d="M300.0 668.6066173323304 Q 357.6818994854751 590.736053026939 300.0 564.7791982584752" stroke-width="1.0" stroke="rgb(255,0,0)" stroke-opacity="0.3" fill="none"/>
<path d="M300.0 837.8009562121492 Q 451.67875441870785 633.0346377468936 300.0 564.7791982584752" stroke-width="1.0" stroke="rgb(255,0,0)" stroke-opacity="0.3" fill="none"/>
<path d="M300.0 850.0 Q 373.1706144053843 751.2196705527313 300.0 718.2928940703083" stroke-width="1.0" stroke="rgb(255,0,0)" stroke-opacity="0.3" fill="none"/>
<path d="M300.0 774.3608637291981 Q 331.14887203271655 732.3098864850308 300.0 718.2928940703083" stroke-width="1.0" stroke="rgb(255,0,0)" stroke-opacity="0.3" fill="none"/>
<path d="M300.0 816.7377401107966 Q 354.6915811336046 742.9041055804304 300.0 718.2928940703083" stroke-width="1.0" stroke="rgb(255,0,0)" stroke-opacity="0.3" fill="none"/>
<path d="M300.0 657.8658908523319 Q 294.03292973333413 665.9214357123308 300.0 668.6066173323304" stroke-width="1.0" stroke="rgb(0,0,255)" stroke-opacity="0.3" fill="none"/>
<path d="M300.0 698.7312227109442 Q 316.73589187700765 676.1377686769838 300.0 668.6066173323304" stroke-width="1.0" stroke="rgb(255,0,0)" stroke-opacity="0.3" fill="none"/>
<path d="M300.0 774.3608637291981 Q 358.7523591093709 695.0451789315473 300.0 668.6066173323304" stroke-width="1.0" stroke="rgb(255,0,0)" stroke-opacity="0.3" fill="none"/>
<path d="M300.0 657.8658908523319 Q 434.9696805518232 475.6568221073705 300.0 414.92046585905" stroke-width="2.0" stroke="rgb(255,0,0)" stroke-opacity="0.3" fill="none"/>
<path d="M300.0 850.0 Q 541.7108523005278 523.6903493942875 300.0 414.92046585905" stroke-width="10.0" stroke="rgb(255,0,0)" stroke-opacity="0.3" fill="none"/>
<path d="M300.0 474.1219882741568 Q 332.88973467505934 429.7208464628267 300.0 414.92046585905" stroke-width="8.0" stroke="rgb(255,0,0)" stroke-opacity="0.3" fill="none"/>
<path d="M300.0 774.3608637291981 Q 499.68910992786004 504.78056532658707 300.0 414.92046585905" stroke-width="2.0" stroke="rgb(255,0,0)" stroke-opacity="0.3" fill="none"/>
<path d="M300.0 816.7377401107966 Q 523.2318190287481 515.3747844219866 300.0 414.92046585905" stroke-width="1.0" stroke="rgb(255,0,0)" stroke-opacity="0.3" fill="none"/>
<path d="M300.0 661.7900828690865 Q 437.149787227798 476.63787011155915 300.0 414.92046585905" stroke-width="1.0" stroke="rgb(255,0,0)" stroke-opacity="0.3" fill="none"/>
<path d="M300.0 564.7791982584752 Q 383.25485133301396 452.3851489589063 300.0 414.92046585905" stroke-width="3.0" stroke="rgb(255,0,0)" stroke-opacity="0.3" fill="none"/>
<path d="M300.0 718.2928940703083 Q 468.5402378951435 490.76357291186457 300.0 414.92046585905" stroke-width="1.0" stroke="rgb(255,0,0)" stroke-opacity="0.3" fill="none"/>
<path d="M300.0 611.850864281849 Q 409.405776901555 464.1530654647498 300.0 414.92046585905" stroke-width="1.0" stroke="rgb(255,0,0)" stroke-opacity="0.3" fill="none"/>
<path d="M300.0 337.3484880304642 Q 256.90445676189677 395.52747140190354 300.0 414.92046585905" stroke-width="2.0" stroke="rgb(0,0,255)" stroke-opacity="0.3" fill="none"/>
<path d="M300.0 837.8009562121492 Q 534.9336057517218 520.6405884473248 300.0 414.92046585905" stroke-width="1.0" stroke="rgb(255,0,0)" stroke-opacity="0.3" fill="none"/>
<path d="M300.0 657.8658908523319 Q 339.6614959677441 604.3228712958773 300.0 586.4751981103925" stroke-width="3.0" stroke="rgb(255,0,0)" stroke-opacity="0.3" fill="none"/>
<path d="M300.0 850.0 Q 446.4026677164486 652.3563985827943 300.0 586.4751981103925" stroke-width="2.0" stroke="rgb(255,0,0)" stroke-opacity="0.3" fill="none"/>
<path d="M300.0 698.7312227109442 Q 362.3644581114176 614.5392042605304 300.0 586.4751981103925" stroke-width="1.0" stroke="rgb(255,0,0)" stroke-opacity="0.3" fill="none"/>
<path d="M300.0 774.3608637291981 Q 404.38092534378086 633.4466145150939 300.0 586.4751981103925" stroke-width="5.0" stroke="rgb(255,0,0)" stroke-opacity="0.3" fill="none"/>
<path d="M300.0 816.7377401107966 Q 427.92363444466895 644.0408336104936 300.0 586.4751981103925" stroke-width="4.0" stroke="rgb(255,0,0)" stroke-opacity="0.3" fill="none"/>
<path d="M300.0 837.8009562121492 Q 439.6254211676426 649.3066376358317 300.0 586.4751981103925" stroke-width="2.0" stroke="rgb(255,0,0)" stroke-opacity="0.3" fill="none"/>
<path d="M300.0 850.0 Q 432.3050753989728 671.3881482113868 300.0 611.850864281849" stroke-width="1.0" stroke="rgb(255,0,0)" stroke-opacity="0.3" fill="none"/>
<path d="M300.0 698.7312227109442 Q 348.26686579394175 633.5709538891228 300.0 611.850864281849" stroke-width="1.0" stroke="rgb(255,0,0)" stroke-opacity="0.3" fill="none"/>
<path d="M300.0 774.3608637291981 Q 390.28333302630506 652.4783641436862 300.0 611.850864281849" stroke-width="3.0" stroke="rgb(255,0,0)" stroke-opacity="0.3" fill="none"/>
<path d="M300.0 718.2928940703083 Q 359.1344609935885 638.4613717289639 300.0 611.850864281849" stroke-width="1.0" stroke="rgb(255,0,0)" stroke-opacity="0.3" fill="none"/>
<path d="M300.0 586.4751981103925 Q 285.9024076825242 605.5069477389849 300.0 611.850864281849" stroke-width="1.0" stroke="rgb(0,0,255)" stroke-opacity="0.3" fill="none"/>
<path d="M300.0 593.7182705018297 Q 289.9263367888782 607.3177158368442 300.0 611.850864281849" stroke-width="1.0" stroke="rgb(0,0,255)" stroke-opacity="0.3" fill="none"/>
<path d="M300.0 837.8009562121492 Q 425.52782885016677 668.338387264424 300.0 611.850864281849" stroke-width="1.0" stroke="rgb(255,0,0)" stroke-opacity="0.3" fill="none"/>
<path d="M300.0 657.8658908523319 Q 478.06522378992645 417.4778387359311 300.0 337.3484880304642" stroke-width="2.0" stroke="rgb(255,0,0)" stroke-opacity="0.3" fill="none"/>
<path d="M300.0 850.0 Q 584.806395538631 465.51136602284816 300.0 337.3484880304642" stroke-width="1.0" stroke="rgb(255,0,0)" stroke-opacity="0.3" fill="none"/>
<path d="M300.0 698.7312227109442 Q 500.76818593359997 427.6941717005842 300.0 337.3484880304642" stroke-width="1.0" stroke="rgb(255,0,0)" stroke-opacity="0.3" fill="none"/>
<path d="M300.0 749.432920618758 Q 528.9357958823855 440.36959617753763 300.0 337.3484880304642" stroke-width="3.0" stroke="rgb(255,0,0)" stroke-opacity="0.3" fill="none"/>
<path d="M300.0 474.1219882741568 Q 375.9852779131626 371.5418630913873 300.0 337.3484880304642" stroke-width="5.0" stroke="rgb(255,0,0)" stroke-opacity="0.3" fill="none"/>
<path d="M300.0 816.7377401107966 Q 566.3273622668514 457.1958010505473 300.0 337.3484880304642" stroke-width="1.0" stroke="rgb(255,0,0)" stroke-opacity="0.3" fill="none"/>
<path d="M300.0 661.7900828690865 Q 480.2453304659013 418.45888674011974 300.0 337.3484880304642" stroke-width="4.0" stroke="rgb(255,0,0)" stroke-opacity="0.3" fill="none"/>
<path d="M300.0 564.7791982584752 Q 426.3503945711172 394.2061655874669 300.0 337.3484880304642" stroke-width="3.0" stroke="rgb(255,0,0)" stroke-opacity="0.3" fill="none"/>
<path d="M300.0 718.2928940703083 Q 511.6357811332467 432.5845895404252 300.0 337.3484880304642" stroke-width="1.0" stroke="rgb(255,0,0)" stroke-opacity="0.3" fill="none"/>
<path d="M300.0 668.6066173323304 Q 484.0322940565924 420.1630203559307 300.0 337.3484880304642" stroke-width="2.0" stroke="rgb(255,0,0)" stroke-opacity="0.3" fill="none"/>
<path d="M300.0 414.92046585905 Q 343.09554323810323 356.74148248761065 300.0 337.3484880304642" stroke-width="6.0" stroke="rgb(255,0,0)" stroke-opacity="0.3" fill="none"/>
<path d="M300.0 586.4751981103925 Q 438.4037278221824 399.63016555044624 300.0 337.3484880304642" stroke-width="1.0" stroke="rgb(255,0,0)" stroke-opacity="0.3" fill="none"/>
<path d="M300.0 611.850864281849 Q 452.5013201396582 405.97408209331036 300.0 337.3484880304642" stroke-width="4.0" stroke="rgb(255,0,0)" stroke-opacity="0.3" fill="none"/>
<path d="M300.0 593.7182705018297 Q 442.4276569285364 401.44093364830553 300.0 337.3484880304642" stroke-width="3.0" stroke="rgb(255,0,0)" stroke-opacity="0.3" fill="none"/>
<path d="M300.0 850.0 Q 442.3787386100946 657.7887028763723 300.0 593.7182705018297" stroke-width="2.0" stroke="rgb(255,0,0)" stroke-opacity="0.3" fill="none"/>
<path d="M300.0 816.7377401107966 Q 423.89970533831496 649.4731379040715 300.0 593.7182705018297" stroke-width="1.0" stroke="rgb(255,0,0)" stroke-opacity="0.3" fill="none"/>
<path d="M300.0 586.4751981103925 Q 295.976070893646 591.9075024039704 300.0 593.7182705018297" stroke-width="2.0" stroke="rgb(0,0,255)" stroke-opacity="0.3" fill="none"/>
<path d="M300.0 837.8009562121492 Q 435.60149206128864 654.7389419294095 300.0 593.7182705018297" stroke-width="2.0" stroke="rgb(255,0,0)" stroke-opacity="0.3" fill="none"/>
<path d="M300.0 850.0 Q 306.777246548806 840.8507171591119 300.0 837.8009562121492" stroke-width="2.0" stroke="rgb(255,0,0)" stroke-opacity="0.3" fill="none"/>
<path d="M300.0 657.8658908523319 Q 537.7032726957399 336.96647271308296 300.0 230.0" stroke-width="2.0" stroke="rgb(255,0,0)" stroke-opacity="0.3" fill="none"/>
<path d="M300.0 850.0 Q 644.4444444444445 385.0 300.0 230.0" stroke-width="3.0" stroke="rgb(255,0,0)" stroke-opacity="0.3" fill="none"/>
<path d="M300.0 698.7312227109442 Q 560.4062348394134 347.18280567773604 300.0 230.0" stroke-width="3.0" stroke="rgb(255,0,0)" stroke-opacity="0.3" fill="none"/>
<path d="M300.0 749.432920618758 Q 588.5738447881988 359.8582301546895 300.0 230.0" stroke-width="3.0" stroke="rgb(255,0,0)" stroke-opacity="0.3" fill="none"/>
<path d="M300.0 474.1219882741568 Q 435.623326818976 291.0304970685392 300.0 230.0" stroke-width="11.0" stroke="rgb(255,0,0)" stroke-opacity="0.3" fill="none"/>
<path d="M300.0 774.3608637291981 Q 602.4227020717767 366.09021593229954 300.0 230.0" stroke-width="1.0" stroke="rgb(255,0,0)" stroke-opacity="0.3" fill="none"/>
<path d="M300.0 333.6269075856309 Q 357.57050421423935 255.90672689640772 300.0 230.0" stroke-width="8.0" stroke="rgb(255,0,0)" stroke-opacity="0.3" fill="none"/>
<path d="M300.0 661.7900828690865 Q 539.8833793717147 337.94752071727163 300.0 230.0" stroke-width="2.0" stroke="rgb(255,0,0)" stroke-opacity="0.3" fill="none"/>
<path d="M300.0 564.7791982584752 Q 485.9884434769307 313.6947995646188 300.0 230.0" stroke-width="4.0" stroke="rgb(255,0,0)" stroke-opacity="0.3" fill="none"/>
<path d="M300.0 718.2928940703083 Q 571.2738300390602 352.07322351757705 300.0 230.0" stroke-width="1.0" stroke="rgb(255,0,0)" stroke-opacity="0.3" fill="none"/>
<path d="M300.0 668.6066173323304 Q 543.6703429624058 339.6516543330826 300.0 230.0" stroke-width="2.0" stroke="rgb(255,0,0)" stroke-opacity="0.3" fill="none"/>
<path d="M300.0 414.92046585905 Q 402.73359214391667 276.2301164647625 300.0 230.0" stroke-width="1.0" stroke="rgb(255,0,0)" stroke-opacity="0.3" fill="none"/>
<path d="M300.0 586.4751981103925 Q 498.04177672799585 319.1187995275981 300.0 230.0" stroke-width="1.0" stroke="rgb(255,0,0)" stroke-opacity="0.3" fill="none"/>
<path d="M300.0 611.850864281849 Q 512.1393690454717 325.46271607046225 300.0 230.0" stroke-width="1.0" stroke="rgb(255,0,0)" stroke-opacity="0.3" fill="none"/>
<path d="M300.0 337.3484880304642 Q 359.63804890581343 256.837122007616 300.0 230.0" stroke-width="3.0" stroke="rgb(255,0,0)" stroke-opacity="0.3" fill="none"/>
<path d="M300.0 593.7182705018297 Q 502.06570583434984 320.9295676254574 300.0 230.0" stroke-width="2.0" stroke="rgb(255,0,0)" stroke-opacity="0.3" fill="none"/>
<circle class="node" r="3" style="fill: rgb(100,100,100); stroke: rgb(255,255,255); stroke-width:1.5" cx="300.0" cy="657.8658908523319"/>
<circle class="node" r="3" style="fill: rgb(100,100,100); stroke: rgb(255,255,255); stroke-width:1.5" cx="300.0" cy="850.0"/>
<circle class="node" r="3" style="fill: rgb(100,100,100); stroke: rgb(255,255,255); stroke-width:1.5" cx="300.0" cy="698.7312227109442"/>
<circle class="node" r="3" style="fill: rgb(100,100,100); stroke: rgb(255,255,255); stroke-width:1.5" cx="300.0" cy="749.432920618758"/>
<circle class="node" r="3" style="fill: rgb(100,100,100); stroke: rgb(255,255,255); stroke-width:1.5" cx="300.0" cy="474.1219882741568"/>
<circle class="node" r="3" style="fill: rgb(100,100,100); stroke: rgb(255,255,255); stroke-width:1.5" cx="300.0" cy="774.3608637291981"/>
<circle class="node" r="3" style="fill: rgb(100,100,100); stroke: rgb(255,255,255); stroke-width:1.5" cx="300.0" cy="816.7377401107966"/>
<circle class="node" r="3" style="fill: rgb(100,100,100); stroke: rgb(255,255,255); stroke-width:1.5" cx="300.0" cy="333.6269075856309"/>
<circle class="node" r="3" style="fill: rgb(100,100,100); stroke: rgb(255,255,255); stroke-width:1.5" cx="300.0" cy="661.7900828690865"/>
<circle class="node" r="3" style="fill: rgb(100,100,100); stroke: rgb(255,255,255); stroke-width:1.5" cx="300.0" cy="564.7791982584752"/>
<circle class="node" r="3" style="fill: rgb(100,100,100); stroke: rgb(255,255,255); stroke-width:1.5" cx="300.0" cy="718.2928940703083"/>
<circle class="node" r="3" style="fill: rgb(100,100,100); stroke: rgb(255,255,255); stroke-width:1.5" cx="300.0" cy="668.6066173323304"/>
<circle class="node" r="3" style="fill: rgb(100,100,100); stroke: rgb(255,255,255); stroke-width:1.5" cx="300.0" cy="414.92046585905"/>
<circle class="node" r="3" style="fill: rgb(100,100,100); stroke: rgb(255,255,255); stroke-width:1.5" cx="300.0" cy="586.4751981103925"/>
<circle class="node" r="3" style="fill: rgb(100,100,100); stroke: rgb(255,255,255); stroke-width:1.5" cx="300.0" cy="611.850864281849"/>
<circle class="node" r="3" style="fill: rgb(100,100,100); stroke: rgb(255,255,255); stroke-width:1.5" cx="300.0" cy="337.3484880304642"/>
<circle class="node" r="3" style="fill: rgb(100,100,100); stroke: rgb(255,255,255); stroke-width:1.5" cx="300.0" cy="593.7182705018297"/>
<circle class="node" r="3" style="fill: rgb(100,100,100); stroke: rgb(255,255,255); stroke-width:1.5" cx="300.0" cy="837.8009562121492"/>
<circle class="node" r="3" style="fill: rgb(100,100,100); stroke: rgb(255,255,255); stroke-width:1.5" cx="300.0" cy="230.0"/>
</svg>